<?xml version="1.0" encoding="utf-8" standalone="no"?>
<!DOCTYPE svg PUBLIC "-//W3C//DTD SVG 1.1//EN"
  "http://www.w3.org/Graphics/SVG/1.1/DTD/svg11.dtd">
<!-- Created with matplotlib (https://matplotlib.org/) -->
<svg height="216pt" version="1.1" viewBox="0 0 288 216" width="288pt" xmlns="http://www.w3.org/2000/svg" xmlns:xlink="http://www.w3.org/1999/xlink">
 <metadata>
  <rdf:RDF xmlns:cc="http://creativecommons.org/ns#" xmlns:dc="http://purl.org/dc/elements/1.1/" xmlns:rdf="http://www.w3.org/1999/02/22-rdf-syntax-ns#">
   <cc:Work>
    <dc:type rdf:resource="http://purl.org/dc/dcmitype/StillImage"/>
    <dc:date>2020-11-03T11:03:56.399702</dc:date>
    <dc:format>image/svg+xml</dc:format>
    <dc:creator>
     <cc:Agent>
      <dc:title>Matplotlib v3.3.1, https://matplotlib.org/</dc:title>
     </cc:Agent>
    </dc:creator>
   </cc:Work>
  </rdf:RDF>
 </metadata>
 <defs>
  <style type="text/css">*{stroke-linecap:butt;stroke-linejoin:round;}</style>
 </defs>
 <g id="figure_1">
  <g id="patch_1">
   <path d="M 0 216 
L 288 216 
L 288 0 
L 0 0 
z
" style="fill:#ffffff;"/>
  </g>
  <g id="patch_2">
   <path d="M 64.44 192.24 
L 230.76 192.24 
L 230.76 25.92 
L 64.44 25.92 
z
" style="fill:#ffffff;"/>
  </g>
  <g id="pane3d_1">
   <g id="patch_3">
    <path d="M 76.998307 151.230818 
L 131.922603 105.192184 
L 131.159102 38.796244 
L 73.606396 80.795588 
" style="fill:#f2f2f2;opacity:0.5;stroke:#f2f2f2;stroke-linejoin:miter;"/>
   </g>
  </g>
  <g id="pane3d_2">
   <g id="patch_4">
    <path d="M 131.922603 105.192184 
L 220.0565 130.809229 
L 223.201688 62.126357 
L 131.159102 38.796244 
" style="fill:#e6e6e6;opacity:0.5;stroke:#e6e6e6;stroke-linejoin:miter;"/>
   </g>
  </g>
  <g id="pane3d_3">
   <g id="patch_5">
    <path d="M 76.998307 151.230818 
L 170.424543 181.743827 
L 220.0565 130.809229 
L 131.922603 105.192184 
" style="fill:#ececec;opacity:0.5;stroke:#ececec;stroke-linejoin:miter;"/>
   </g>
  </g>
  <g id="axis3d_1">
   <g id="line2d_1">
    <path d="M 76.998307 151.230818 
L 170.424543 181.743827 
" style="fill:none;stroke:#000000;stroke-linecap:square;stroke-width:0.8;"/>
   </g>
   <g id="Line3DCollection_1">
    <path d="M 90.477388 155.633086 
L 144.686247 108.902072 
L 144.46476 42.168841 
" style="fill:none;stroke:#b0b0b0;stroke-width:0.8;"/>
    <path d="M 122.479926 166.085115 
L 174.92503 117.691292 
L 176.020116 50.167203 
" style="fill:none;stroke:#b0b0b0;stroke-width:0.8;"/>
    <path d="M 155.682644 176.929122 
L 206.201322 126.782075 
L 208.706278 58.452193 
" style="fill:none;stroke:#b0b0b0;stroke-width:0.8;"/>
   </g>
   <g id="xtick_1">
    <g id="line2d_2">
     <path d="M 90.949609 155.226006 
L 89.530911 156.449002 
" style="fill:none;stroke:#000000;stroke-linecap:square;stroke-width:0.8;"/>
    </g>
    <g id="text_1">
     <!-- $E$ -->
     <g transform="translate(80.46404 177.544533)scale(0.08 -0.08)">
      <defs>
       <path d="M 63.40625 65.296875 
L 60.296875 49.90625 
L 58.09375 50.09375 
Q 58.40625 52.59375 58.40625 54.703125 
Q 58.40625 59.203125 54.703125 60.59375 
Q 51 62 39.203125 62 
Q 35 62 33.703125 61.546875 
Q 32.40625 61.09375 31.90625 59.40625 
L 25.296875 36.09375 
L 33.09375 36.09375 
Q 39.703125 36.09375 41.890625 37.6875 
Q 44.09375 39.296875 47 45.796875 
L 48.796875 45.40625 
L 42 22.203125 
L 40 22.703125 
Q 40.703125 25.796875 40.703125 27.90625 
Q 40.703125 30.296875 40 31 
Q 38.296875 32.5 32.203125 32.5 
L 24.40625 32.5 
L 21.203125 21.296875 
Q 17.59375 8.59375 17.59375 6.703125 
Q 17.59375 3.296875 25.5 3.296875 
Q 38.40625 3.296875 45.796875 7.203125 
Q 49.59375 9.203125 55.203125 17 
L 56.796875 16.203125 
L 50.59375 0 
L -0.09375 0 
L -0.09375 1.59375 
Q 4.203125 2.40625 5.5 3.546875 
Q 6.796875 4.703125 8 9 
L 20.296875 53.203125 
Q 21.40625 56.90625 21.40625 59.59375 
Q 21.40625 61.59375 19.84375 62.4375 
Q 18.296875 63.296875 13.703125 63.703125 
L 13.703125 65.296875 
z
" id="STIXGeneral-Italic-69"/>
      </defs>
      <use transform="translate(0 0.703125)" xlink:href="#STIXGeneral-Italic-69"/>
     </g>
    </g>
   </g>
   <g id="xtick_2">
    <g id="line2d_3">
     <path d="M 122.937469 165.662916 
L 121.562832 166.931365 
" style="fill:none;stroke:#000000;stroke-linecap:square;stroke-width:0.8;"/>
    </g>
    <g id="text_2">
     <!-- $M_1$ -->
     <g transform="translate(110.082252 188.353504)scale(0.08 -0.08)">
      <defs>
       <path d="M 87.203125 65.296875 
L 87.203125 63.703125 
Q 83.09375 63 81.640625 61.640625 
Q 80.203125 60.296875 79.09375 56.296875 
L 66.796875 12 
Q 65.40625 7 65.40625 5.796875 
Q 65.40625 3.796875 67.203125 2.75 
Q 69 1.703125 73.5 1.59375 
L 73.40625 0 
L 46.296875 0 
L 46.296875 1.59375 
Q 51.203125 2.09375 53.203125 3.796875 
Q 55.203125 5.5 56.5 10.203125 
L 69.09375 56.09375 
L 31.5 0 
L 29.796875 0 
L 23.59375 54.59375 
L 11.796875 11.796875 
Q 10.90625 8.59375 10.90625 6.40625 
Q 10.90625 2.09375 17.90625 1.59375 
L 17.90625 0 
L -1.796875 0 
L -1.796875 1.59375 
Q 2.203125 2.09375 4.046875 4.4375 
Q 5.90625 6.796875 8.203125 15 
L 19.59375 55.09375 
Q 20.796875 59.203125 20.796875 60.296875 
Q 20.796875 63.296875 13.40625 63.703125 
L 13.40625 65.296875 
L 31.5 65.296875 
L 37.09375 16.09375 
L 70.59375 65.296875 
z
" id="STIXGeneral-Italic-77"/>
       <path d="M 39.40625 0 
L 11.796875 0 
L 11.796875 1.5 
Q 17.296875 1.796875 19.296875 3.546875 
Q 21.296875 5.296875 21.296875 9.5 
L 21.296875 54.40625 
Q 21.296875 59.296875 18.296875 59.296875 
Q 16.90625 59.296875 13.796875 58.09375 
L 11.09375 57.09375 
L 11.09375 58.5 
L 29 67.59375 
L 29.90625 67.296875 
L 29.90625 7.59375 
Q 29.90625 4.296875 31.90625 2.890625 
Q 33.90625 1.5 39.40625 1.5 
z
" id="STIXGeneral-Regular-49"/>
      </defs>
      <use transform="translate(0 0.703125)" xlink:href="#STIXGeneral-Italic-77"/>
      <use transform="translate(83.299988 -12.525)scale(0.7)" xlink:href="#STIXGeneral-Regular-49"/>
     </g>
    </g>
   </g>
   <g id="xtick_3">
    <g id="line2d_4">
     <path d="M 156.124065 176.490948 
L 154.797826 177.807431 
" style="fill:none;stroke:#000000;stroke-linecap:square;stroke-width:0.8;"/>
    </g>
    <g id="text_3">
     <!-- $M_2$ -->
     <g transform="translate(143.350203 199.57036)scale(0.08 -0.08)">
      <defs>
       <path d="M 47.40625 13.703125 
L 42 0 
L 2.90625 0 
L 2.90625 1.203125 
L 20.703125 20.09375 
Q 27.703125 27.40625 30.703125 33.5 
Q 33.703125 39.59375 33.703125 46.09375 
Q 33.703125 52.796875 30 56.5 
Q 26.296875 60.203125 19.796875 60.203125 
Q 14.40625 60.203125 11.25 57.390625 
Q 8.09375 54.59375 5.09375 47.203125 
L 3 47.703125 
Q 4.703125 57 9.84375 62.296875 
Q 15 67.59375 23.796875 67.59375 
Q 32.09375 67.59375 37.1875 62.59375 
Q 42.296875 57.59375 42.296875 50 
Q 42.296875 38.703125 29.5 25.203125 
L 13 7.59375 
L 36.40625 7.59375 
Q 39.703125 7.59375 41.640625 8.890625 
Q 43.59375 10.203125 46 14.296875 
z
" id="STIXGeneral-Regular-50"/>
      </defs>
      <use transform="translate(0 0.703125)" xlink:href="#STIXGeneral-Italic-77"/>
      <use transform="translate(83.299988 -12.525)scale(0.7)" xlink:href="#STIXGeneral-Regular-50"/>
     </g>
    </g>
   </g>
  </g>
  <g id="axis3d_2">
   <g id="line2d_5">
    <path d="M 220.0565 130.809229 
L 170.424543 181.743827 
" style="fill:none;stroke:#000000;stroke-linecap:square;stroke-width:0.8;"/>
   </g>
   <g id="Line3DCollection_2">
    <path d="M 81.439793 75.079132 
L 84.449467 144.985108 
L 177.183468 174.807507 
" style="fill:none;stroke:#b0b0b0;stroke-width:0.8;"/>
    <path d="M 96.421453 64.146198 
L 98.721527 133.021984 
L 190.106993 161.544791 
" style="fill:none;stroke:#b0b0b0;stroke-width:0.8;"/>
    <path d="M 110.745617 53.693077 
L 112.393631 121.561755 
L 202.459459 148.868122 
" style="fill:none;stroke:#b0b0b0;stroke-width:0.8;"/>
    <path d="M 124.454636 43.688859 
L 125.50283 110.573365 
L 214.277898 136.739496 
" style="fill:none;stroke:#b0b0b0;stroke-width:0.8;"/>
   </g>
   <g id="xtick_4">
    <g id="line2d_6">
     <path d="M 176.402224 174.556267 
L 178.747963 175.310635 
" style="fill:none;stroke:#000000;stroke-linecap:square;stroke-width:0.8;"/>
    </g>
    <g id="text_4">
     <!-- $f_1$ -->
     <g transform="translate(187.277366 194.217201)scale(0.08 -0.08)">
      <defs>
       <path d="M 4.09375 42.796875 
L 13.40625 42.796875 
Q 17.296875 55.40625 20.59375 60.09375 
Q 26 67.796875 33.796875 67.796875 
Q 37.5 67.796875 39.953125 66.046875 
Q 42.40625 64.296875 42.40625 61.59375 
Q 42.40625 59.90625 41.15625 58.59375 
Q 39.90625 57.296875 38.203125 57.296875 
Q 36.796875 57.296875 35.640625 58.390625 
Q 34.5 59.5 34.5 61.203125 
Q 34.5 62.203125 35 63.09375 
Q 35.5 64 35.5 64.296875 
Q 35.5 65.59375 33.296875 65.59375 
Q 29.09375 65.59375 26.1875 60.140625 
Q 23.296875 54.703125 21.09375 42.796875 
L 31.796875 42.796875 
L 31.203125 39.59375 
L 20.40625 39.59375 
L 13.203125 7.59375 
Q 6.796875 -20.703125 -6.796875 -20.703125 
Q -10.203125 -20.703125 -12.453125 -18.953125 
Q -14.703125 -17.203125 -14.703125 -14.59375 
Q -14.703125 -12.90625 -13.59375 -11.65625 
Q -12.5 -10.40625 -10.90625 -10.40625 
Q -9.203125 -10.40625 -8.140625 -11.453125 
Q -7.09375 -12.5 -7.09375 -14.09375 
Q -7.09375 -14.796875 -7.546875 -15.640625 
Q -8 -16.5 -8 -17 
Q -8 -18.59375 -6 -18.59375 
Q 0.203125 -18.59375 3.703125 -2.40625 
L 12.5 39.59375 
L 3.40625 39.59375 
z
" id="STIXGeneral-Italic-102"/>
      </defs>
      <use transform="translate(0 0.203125)" xlink:href="#STIXGeneral-Italic-102"/>
      <use transform="translate(27.799988 -13.025)scale(0.7)" xlink:href="#STIXGeneral-Regular-49"/>
     </g>
    </g>
   </g>
   <g id="xtick_5">
    <g id="line2d_7">
     <path d="M 189.337987 161.304772 
L 191.646939 162.025431 
" style="fill:none;stroke:#000000;stroke-linecap:square;stroke-width:0.8;"/>
    </g>
    <g id="text_5">
     <!-- $f_2$ -->
     <g transform="translate(199.923154 180.640299)scale(0.08 -0.08)">
      <use transform="translate(0 0.203125)" xlink:href="#STIXGeneral-Italic-102"/>
      <use transform="translate(27.799988 -13.025)scale(0.7)" xlink:href="#STIXGeneral-Regular-50"/>
     </g>
    </g>
   </g>
   <g id="xtick_6">
    <g id="line2d_8">
     <path d="M 201.702383 148.63859 
L 203.975473 149.32775 
" style="fill:none;stroke:#000000;stroke-linecap:square;stroke-width:0.8;"/>
    </g>
    <g id="text_6">
     <!-- $f_3$ -->
     <g transform="translate(212.009646 167.663875)scale(0.08 -0.08)">
      <defs>
       <path d="M 6.09375 51 
L 4.5 51.40625 
Q 6.796875 58.90625 11.6875 63.25 
Q 16.59375 67.59375 24.09375 67.59375 
Q 31.09375 67.59375 35.390625 63.796875 
Q 39.703125 60 39.703125 53.90625 
Q 39.703125 45.703125 30.40625 40.09375 
Q 35.90625 37.703125 38.703125 34.796875 
Q 43.09375 29.90625 43.09375 21.90625 
Q 43.09375 13.90625 38.5 7.90625 
Q 35.09375 3.296875 28.75 0.9375 
Q 22.40625 -1.40625 15.296875 -1.40625 
Q 4.09375 -1.40625 4.09375 4.296875 
Q 4.09375 5.90625 5.296875 6.90625 
Q 6.5 7.90625 8.203125 7.90625 
Q 10.703125 7.90625 14.296875 5.296875 
Q 18.703125 2.203125 22.90625 2.203125 
Q 28.40625 2.203125 32.15625 6.640625 
Q 35.90625 11.09375 35.90625 17.5 
Q 35.90625 29 25.5 32 
Q 22.40625 33 15.296875 33 
L 15.296875 34.40625 
Q 20.90625 36.296875 23.703125 38 
Q 31.796875 42.59375 31.796875 51.40625 
Q 31.796875 56.40625 28.9375 59 
Q 26.09375 61.59375 21 61.59375 
Q 12 61.59375 6.09375 51 
z
" id="STIXGeneral-Regular-51"/>
      </defs>
      <use transform="translate(0 0.203125)" xlink:href="#STIXGeneral-Italic-102"/>
      <use transform="translate(27.799988 -13.025)scale(0.7)" xlink:href="#STIXGeneral-Regular-51"/>
     </g>
    </g>
   </g>
   <g id="xtick_7">
    <g id="line2d_9">
     <path d="M 213.53245 136.519778 
L 215.770587 137.179461 
" style="fill:none;stroke:#000000;stroke-linecap:square;stroke-width:0.8;"/>
    </g>
    <g id="text_7">
     <!-- $f_4$ -->
     <g transform="translate(223.573144 155.248952)scale(0.08 -0.08)">
      <defs>
       <path d="M 47.296875 16.703125 
L 37 16.703125 
L 37 0 
L 29.203125 0 
L 29.203125 16.703125 
L 1.203125 16.703125 
L 1.203125 23.09375 
L 32.59375 67.59375 
L 37 67.59375 
L 37 23.09375 
L 47.296875 23.09375 
z
M 29.203125 23.09375 
L 29.203125 57.40625 
L 5.203125 23.09375 
z
" id="STIXGeneral-Regular-52"/>
      </defs>
      <use transform="translate(0 0.203125)" xlink:href="#STIXGeneral-Italic-102"/>
      <use transform="translate(27.799988 -13.025)scale(0.7)" xlink:href="#STIXGeneral-Regular-52"/>
     </g>
    </g>
   </g>
  </g>
  <g id="axis3d_3">
   <g id="line2d_10">
    <path d="M 220.0565 130.809229 
L 223.201688 62.126357 
" style="fill:none;stroke:#000000;stroke-linecap:square;stroke-width:0.8;"/>
   </g>
   <g id="Line3DCollection_3">
    <path d="M 220.116759 129.493341 
L 131.907945 103.917475 
L 76.933429 149.883587 
" style="fill:none;stroke:#b0b0b0;stroke-width:0.8;"/>
    <path d="M 220.848011 113.524669 
L 131.730158 88.456737 
L 76.145784 133.52762 
" style="fill:none;stroke:#b0b0b0;stroke-width:0.8;"/>
    <path d="M 221.594642 97.220147 
L 131.548813 72.686492 
L 75.340936 116.814428 
" style="fill:none;stroke:#b0b0b0;stroke-width:0.8;"/>
    <path d="M 222.357143 80.569069 
L 131.363801 56.597352 
L 74.518315 99.732179 
" style="fill:none;stroke:#b0b0b0;stroke-width:0.8;"/>
    <path d="M 223.136026 63.560266 
L 131.175009 40.179546 
L 73.677327 82.268511 
" style="fill:none;stroke:#b0b0b0;stroke-width:0.8;"/>
   </g>
   <g id="xtick_8">
    <g id="line2d_11">
     <path d="M 219.376414 129.27868 
L 221.59921 129.923173 
" style="fill:none;stroke:#000000;stroke-linecap:square;stroke-width:0.8;"/>
    </g>
    <g id="text_8">
     <!-- 0.00 -->
     <g transform="translate(229.441649 132.975857)scale(0.08 -0.08)">
      <defs>
       <path d="M 31.78125 66.40625 
Q 24.171875 66.40625 20.328125 58.90625 
Q 16.5 51.421875 16.5 36.375 
Q 16.5 21.390625 20.328125 13.890625 
Q 24.171875 6.390625 31.78125 6.390625 
Q 39.453125 6.390625 43.28125 13.890625 
Q 47.125 21.390625 47.125 36.375 
Q 47.125 51.421875 43.28125 58.90625 
Q 39.453125 66.40625 31.78125 66.40625 
z
M 31.78125 74.21875 
Q 44.046875 74.21875 50.515625 64.515625 
Q 56.984375 54.828125 56.984375 36.375 
Q 56.984375 17.96875 50.515625 8.265625 
Q 44.046875 -1.421875 31.78125 -1.421875 
Q 19.53125 -1.421875 13.0625 8.265625 
Q 6.59375 17.96875 6.59375 36.375 
Q 6.59375 54.828125 13.0625 64.515625 
Q 19.53125 74.21875 31.78125 74.21875 
z
" id="DejaVuSans-48"/>
       <path d="M 10.6875 12.40625 
L 21 12.40625 
L 21 0 
L 10.6875 0 
z
" id="DejaVuSans-46"/>
      </defs>
      <use xlink:href="#DejaVuSans-48"/>
      <use x="63.623047" xlink:href="#DejaVuSans-46"/>
      <use x="95.410156" xlink:href="#DejaVuSans-48"/>
      <use x="159.033203" xlink:href="#DejaVuSans-48"/>
     </g>
    </g>
   </g>
   <g id="xtick_9">
    <g id="line2d_12">
     <path d="M 220.099672 113.314169 
L 222.346488 113.946175 
" style="fill:none;stroke:#000000;stroke-linecap:square;stroke-width:0.8;"/>
    </g>
    <g id="text_9">
     <!-- 0.25 -->
     <g transform="translate(230.358163 117.057622)scale(0.08 -0.08)">
      <defs>
       <path d="M 19.1875 8.296875 
L 53.609375 8.296875 
L 53.609375 0 
L 7.328125 0 
L 7.328125 8.296875 
Q 12.9375 14.109375 22.625 23.890625 
Q 32.328125 33.6875 34.8125 36.53125 
Q 39.546875 41.84375 41.421875 45.53125 
Q 43.3125 49.21875 43.3125 52.78125 
Q 43.3125 58.59375 39.234375 62.25 
Q 35.15625 65.921875 28.609375 65.921875 
Q 23.96875 65.921875 18.8125 64.3125 
Q 13.671875 62.703125 7.8125 59.421875 
L 7.8125 69.390625 
Q 13.765625 71.78125 18.9375 73 
Q 24.125 74.21875 28.421875 74.21875 
Q 39.75 74.21875 46.484375 68.546875 
Q 53.21875 62.890625 53.21875 53.421875 
Q 53.21875 48.921875 51.53125 44.890625 
Q 49.859375 40.875 45.40625 35.40625 
Q 44.1875 33.984375 37.640625 27.21875 
Q 31.109375 20.453125 19.1875 8.296875 
z
" id="DejaVuSans-50"/>
       <path d="M 10.796875 72.90625 
L 49.515625 72.90625 
L 49.515625 64.59375 
L 19.828125 64.59375 
L 19.828125 46.734375 
Q 21.96875 47.46875 24.109375 47.828125 
Q 26.265625 48.1875 28.421875 48.1875 
Q 40.625 48.1875 47.75 41.5 
Q 54.890625 34.8125 54.890625 23.390625 
Q 54.890625 11.625 47.5625 5.09375 
Q 40.234375 -1.421875 26.90625 -1.421875 
Q 22.3125 -1.421875 17.546875 -0.640625 
Q 12.796875 0.140625 7.71875 1.703125 
L 7.71875 11.625 
Q 12.109375 9.234375 16.796875 8.0625 
Q 21.484375 6.890625 26.703125 6.890625 
Q 35.15625 6.890625 40.078125 11.328125 
Q 45.015625 15.765625 45.015625 23.390625 
Q 45.015625 31 40.078125 35.4375 
Q 35.15625 39.890625 26.703125 39.890625 
Q 22.75 39.890625 18.8125 39.015625 
Q 14.890625 38.140625 10.796875 36.28125 
z
" id="DejaVuSans-53"/>
      </defs>
      <use xlink:href="#DejaVuSans-48"/>
      <use x="63.623047" xlink:href="#DejaVuSans-46"/>
      <use x="95.410156" xlink:href="#DejaVuSans-50"/>
      <use x="159.033203" xlink:href="#DejaVuSans-53"/>
     </g>
    </g>
   </g>
   <g id="xtick_10">
    <g id="line2d_13">
     <path d="M 220.838135 97.014031 
L 223.109495 97.63288 
" style="fill:none;stroke:#000000;stroke-linecap:square;stroke-width:0.8;"/>
    </g>
    <g id="text_10">
     <!-- 0.50 -->
     <g transform="translate(231.293858 100.806237)scale(0.08 -0.08)">
      <use xlink:href="#DejaVuSans-48"/>
      <use x="63.623047" xlink:href="#DejaVuSans-46"/>
      <use x="95.410156" xlink:href="#DejaVuSans-53"/>
      <use x="159.033203" xlink:href="#DejaVuSans-48"/>
     </g>
    </g>
   </g>
   <g id="xtick_11">
    <g id="line2d_14">
     <path d="M 221.592288 80.367572 
L 223.888733 80.972558 
" style="fill:none;stroke:#000000;stroke-linecap:square;stroke-width:0.8;"/>
    </g>
    <g id="text_11">
     <!-- 0.75 -->
     <g transform="translate(232.249343 84.211133)scale(0.08 -0.08)">
      <defs>
       <path d="M 8.203125 72.90625 
L 55.078125 72.90625 
L 55.078125 68.703125 
L 28.609375 0 
L 18.3125 0 
L 43.21875 64.59375 
L 8.203125 64.59375 
z
" id="DejaVuSans-55"/>
      </defs>
      <use xlink:href="#DejaVuSans-48"/>
      <use x="63.623047" xlink:href="#DejaVuSans-46"/>
      <use x="95.410156" xlink:href="#DejaVuSans-55"/>
      <use x="159.033203" xlink:href="#DejaVuSans-53"/>
     </g>
    </g>
   </g>
   <g id="xtick_12">
    <g id="line2d_15">
     <path d="M 222.362636 63.363635 
L 224.684725 63.954017 
" style="fill:none;stroke:#000000;stroke-linecap:square;stroke-width:0.8;"/>
    </g>
    <g id="text_12">
     <!-- 1.00 -->
     <g transform="translate(233.225253 67.261289)scale(0.08 -0.08)">
      <defs>
       <path d="M 12.40625 8.296875 
L 28.515625 8.296875 
L 28.515625 63.921875 
L 10.984375 60.40625 
L 10.984375 69.390625 
L 28.421875 72.90625 
L 38.28125 72.90625 
L 38.28125 8.296875 
L 54.390625 8.296875 
L 54.390625 0 
L 12.40625 0 
z
" id="DejaVuSans-49"/>
      </defs>
      <use xlink:href="#DejaVuSans-49"/>
      <use x="63.623047" xlink:href="#DejaVuSans-46"/>
      <use x="95.410156" xlink:href="#DejaVuSans-48"/>
      <use x="159.033203" xlink:href="#DejaVuSans-48"/>
     </g>
    </g>
   </g>
  </g>
  <g id="axes_1">
   <g id="Poly3DCollection_1">
    <path clip-path="url(#pc613bbd2f2)" d="M 127.672485 113.594394 
L 134.061593 108.189167 
L 148.994512 112.549478 
L 142.707725 118.04614 
z
" style="fill:#877b14;"/>
    <path clip-path="url(#pc613bbd2f2)" d="M 164.179779 116.983473 
L 164.280065 106.158687 
L 179.833985 110.607182 
L 179.623845 121.493036 
z
" style="fill:#1c1937;"/>
    <path clip-path="url(#pc613bbd2f2)" d="M 134.061593 108.189167 
L 133.411157 44.08471 
L 148.959056 48.066819 
L 148.994512 112.549478 
z
" style="fill:#6a600f;"/>
    <path clip-path="url(#pc613bbd2f2)" d="M 157.999726 122.573909 
L 158.057375 111.673497 
L 164.280065 106.158687 
L 164.179779 116.983473 
z
" style="fill:#3c3474;"/>
    <path clip-path="url(#pc613bbd2f2)" d="M 127.672485 113.594394 
L 126.74891 49.021511 
L 133.411157 44.08471 
L 134.061593 108.189167 
z
" style="fill:#e0cc20;"/>
    <path clip-path="url(#pc613bbd2f2)" d="M 157.999726 122.573909 
L 164.179779 116.983473 
L 179.623845 121.493036 
L 173.555122 127.179667 
z
" style="fill:#242046;"/>
    <path clip-path="url(#pc613bbd2f2)" d="M 158.057375 111.673497 
L 173.724228 116.217562 
L 179.833985 110.607182 
L 164.280065 106.158687 
z
" style="fill:#342e65;"/>
    <path clip-path="url(#pc613bbd2f2)" d="M 173.555122 127.179667 
L 179.623845 121.493036 
L 179.833985 110.607182 
L 173.724228 116.217562 
z
" style="fill:#1c1937;"/>
    <path clip-path="url(#pc613bbd2f2)" d="M 142.707725 118.04614 
L 148.994512 112.549478 
L 148.959056 48.066819 
L 142.407732 53.090636 
z
" style="fill:#6a600f;"/>
    <path clip-path="url(#pc613bbd2f2)" d="M 157.999726 122.573909 
L 173.555122 127.179667 
L 173.724228 116.217562 
L 158.057375 111.673497 
z
" style="fill:#3c3474;"/>
    <path clip-path="url(#pc613bbd2f2)" d="M 127.672485 113.594394 
L 142.707725 118.04614 
L 142.407732 53.090636 
L 126.74891 49.021511 
z
" style="fill:#e0cc20;"/>
    <path clip-path="url(#pc613bbd2f2)" d="M 195.333384 126.080115 
L 195.557761 118.493726 
L 211.621156 123.117463 
L 211.315299 130.746727 
z
" style="fill:#1e1233;"/>
    <path clip-path="url(#pc613bbd2f2)" d="M 189.380778 131.865445 
L 189.577898 124.225962 
L 195.557761 118.493726 
L 195.333384 126.080115 
z
" style="fill:#3f256b;"/>
    <path clip-path="url(#pc613bbd2f2)" d="M 189.380778 131.865445 
L 195.333384 126.080115 
L 211.315299 130.746727 
L 205.483799 136.633347 
z
" style="fill:#261741;"/>
    <path clip-path="url(#pc613bbd2f2)" d="M 189.577898 124.225962 
L 205.763655 128.950565 
L 211.621156 123.117463 
L 195.557761 118.493726 
z
" style="fill:#37205d;"/>
    <path clip-path="url(#pc613bbd2f2)" d="M 126.74891 49.021511 
L 142.407732 53.090636 
L 148.959056 48.066819 
L 133.411157 44.08471 
z
" style="fill:#c2b11c;"/>
    <path clip-path="url(#pc613bbd2f2)" d="M 205.483799 136.633347 
L 211.315299 130.746727 
L 211.621156 123.117463 
L 205.763655 128.950565 
z
" style="fill:#1e1233;"/>
    <path clip-path="url(#pc613bbd2f2)" d="M 189.380778 131.865445 
L 205.483799 136.633347 
L 205.763655 128.950565 
L 189.577898 124.225962 
z
" style="fill:#3f256b;"/>
   </g>
   <g id="text_13">
    <!-- Sensitivity matrix -->
    <g transform="translate(99.516 19.92)scale(0.096 -0.096)">
     <defs>
      <path d="M 59.90625 70.609375 
L 59.90625 55.171875 
Q 53.90625 57.859375 48.1875 59.21875 
Q 42.484375 60.59375 37.40625 60.59375 
Q 30.671875 60.59375 27.4375 58.734375 
Q 24.21875 56.890625 24.21875 52.984375 
Q 24.21875 50.046875 26.390625 48.40625 
Q 28.5625 46.78125 34.28125 45.609375 
L 42.28125 44 
Q 54.4375 41.546875 59.5625 36.5625 
Q 64.703125 31.59375 64.703125 22.40625 
Q 64.703125 10.359375 57.546875 4.46875 
Q 50.390625 -1.421875 35.6875 -1.421875 
Q 28.765625 -1.421875 21.78125 -0.09375 
Q 14.796875 1.21875 7.8125 3.8125 
L 7.8125 19.671875 
Q 14.796875 15.96875 21.3125 14.078125 
Q 27.828125 12.203125 33.890625 12.203125 
Q 40.046875 12.203125 43.3125 14.25 
Q 46.578125 16.3125 46.578125 20.125 
Q 46.578125 23.53125 44.359375 25.390625 
Q 42.140625 27.25 35.5 28.71875 
L 28.21875 30.328125 
Q 17.28125 32.671875 12.21875 37.796875 
Q 7.171875 42.921875 7.171875 51.609375 
Q 7.171875 62.5 14.203125 68.359375 
Q 21.234375 74.21875 34.421875 74.21875 
Q 40.4375 74.21875 46.78125 73.3125 
Q 53.125 72.40625 59.90625 70.609375 
z
" id="DejaVuSans-Bold-83"/>
      <path d="M 62.984375 27.484375 
L 62.984375 22.515625 
L 22.125 22.515625 
Q 22.75 16.359375 26.5625 13.28125 
Q 30.375 10.203125 37.203125 10.203125 
Q 42.71875 10.203125 48.5 11.84375 
Q 54.296875 13.484375 60.40625 16.796875 
L 60.40625 3.328125 
Q 54.203125 0.984375 48 -0.21875 
Q 41.796875 -1.421875 35.59375 -1.421875 
Q 20.75 -1.421875 12.515625 6.125 
Q 4.296875 13.671875 4.296875 27.296875 
Q 4.296875 40.671875 12.375 48.328125 
Q 20.453125 56 34.625 56 
Q 47.515625 56 55.25 48.234375 
Q 62.984375 40.484375 62.984375 27.484375 
z
M 45.015625 33.296875 
Q 45.015625 38.28125 42.109375 41.328125 
Q 39.203125 44.390625 34.515625 44.390625 
Q 29.4375 44.390625 26.265625 41.53125 
Q 23.09375 38.671875 22.3125 33.296875 
z
" id="DejaVuSans-Bold-101"/>
      <path d="M 63.375 33.296875 
L 63.375 0 
L 45.796875 0 
L 45.796875 5.421875 
L 45.796875 25.484375 
Q 45.796875 32.5625 45.484375 35.25 
Q 45.171875 37.9375 44.390625 39.203125 
Q 43.359375 40.921875 41.59375 41.875 
Q 39.84375 42.828125 37.59375 42.828125 
Q 32.125 42.828125 29 38.59375 
Q 25.875 34.375 25.875 26.90625 
L 25.875 0 
L 8.40625 0 
L 8.40625 54.6875 
L 25.875 54.6875 
L 25.875 46.6875 
Q 29.828125 51.46875 34.265625 53.734375 
Q 38.71875 56 44.09375 56 
Q 53.5625 56 58.46875 50.1875 
Q 63.375 44.390625 63.375 33.296875 
z
" id="DejaVuSans-Bold-110"/>
      <path d="M 51.125 52.984375 
L 51.125 39.703125 
Q 45.515625 42.046875 40.28125 43.21875 
Q 35.0625 44.390625 30.421875 44.390625 
Q 25.4375 44.390625 23.015625 43.140625 
Q 20.609375 41.890625 20.609375 39.3125 
Q 20.609375 37.203125 22.4375 36.078125 
Q 24.265625 34.96875 29 34.421875 
L 32.078125 33.984375 
Q 45.515625 32.28125 50.140625 28.375 
Q 54.78125 24.46875 54.78125 16.109375 
Q 54.78125 7.375 48.328125 2.96875 
Q 41.890625 -1.421875 29.109375 -1.421875 
Q 23.6875 -1.421875 17.890625 -0.5625 
Q 12.109375 0.296875 6 2 
L 6 15.28125 
Q 11.234375 12.75 16.71875 11.46875 
Q 22.21875 10.203125 27.875 10.203125 
Q 33.015625 10.203125 35.59375 11.609375 
Q 38.1875 13.03125 38.1875 15.828125 
Q 38.1875 18.171875 36.40625 19.3125 
Q 34.625 20.453125 29.296875 21.09375 
L 26.21875 21.484375 
Q 14.546875 22.953125 9.859375 26.90625 
Q 5.171875 30.859375 5.171875 38.921875 
Q 5.171875 47.609375 11.125 51.796875 
Q 17.09375 56 29.390625 56 
Q 34.234375 56 39.546875 55.265625 
Q 44.875 54.546875 51.125 52.984375 
z
" id="DejaVuSans-Bold-115"/>
      <path d="M 8.40625 54.6875 
L 25.875 54.6875 
L 25.875 0 
L 8.40625 0 
z
M 8.40625 75.984375 
L 25.875 75.984375 
L 25.875 61.71875 
L 8.40625 61.71875 
z
" id="DejaVuSans-Bold-105"/>
      <path d="M 27.484375 70.21875 
L 27.484375 54.6875 
L 45.515625 54.6875 
L 45.515625 42.1875 
L 27.484375 42.1875 
L 27.484375 19 
Q 27.484375 15.1875 29 13.84375 
Q 30.515625 12.5 35.015625 12.5 
L 44 12.5 
L 44 0 
L 29 0 
Q 18.65625 0 14.328125 4.3125 
Q 10.015625 8.640625 10.015625 19 
L 10.015625 42.1875 
L 1.3125 42.1875 
L 1.3125 54.6875 
L 10.015625 54.6875 
L 10.015625 70.21875 
z
" id="DejaVuSans-Bold-116"/>
      <path d="M 1.515625 54.6875 
L 19 54.6875 
L 32.625 16.890625 
L 46.1875 54.6875 
L 63.71875 54.6875 
L 42.1875 0 
L 23 0 
z
" id="DejaVuSans-Bold-118"/>
      <path d="M 1.21875 54.6875 
L 18.703125 54.6875 
L 33.40625 17.578125 
L 45.90625 54.6875 
L 63.375 54.6875 
L 40.375 -5.171875 
Q 36.921875 -14.3125 32.296875 -17.9375 
Q 27.6875 -21.578125 20.125 -21.578125 
L 10.015625 -21.578125 
L 10.015625 -10.109375 
L 15.484375 -10.109375 
Q 19.921875 -10.109375 21.9375 -8.6875 
Q 23.96875 -7.28125 25.09375 -3.609375 
L 25.59375 -2.09375 
z
" id="DejaVuSans-Bold-121"/>
      <path id="DejaVuSans-Bold-32"/>
      <path d="M 59.078125 45.609375 
Q 62.40625 50.6875 66.96875 53.34375 
Q 71.53125 56 77 56 
Q 86.421875 56 91.359375 50.1875 
Q 96.296875 44.390625 96.296875 33.296875 
L 96.296875 0 
L 78.71875 0 
L 78.71875 28.515625 
Q 78.765625 29.15625 78.78125 29.828125 
Q 78.8125 30.515625 78.8125 31.78125 
Q 78.8125 37.59375 77.09375 40.203125 
Q 75.390625 42.828125 71.578125 42.828125 
Q 66.609375 42.828125 63.890625 38.71875 
Q 61.1875 34.625 61.078125 26.859375 
L 61.078125 0 
L 43.5 0 
L 43.5 28.515625 
Q 43.5 37.59375 41.9375 40.203125 
Q 40.375 42.828125 36.375 42.828125 
Q 31.34375 42.828125 28.609375 38.703125 
Q 25.875 34.578125 25.875 26.90625 
L 25.875 0 
L 8.296875 0 
L 8.296875 54.6875 
L 25.875 54.6875 
L 25.875 46.6875 
Q 29.109375 51.3125 33.28125 53.65625 
Q 37.453125 56 42.484375 56 
Q 48.140625 56 52.484375 53.265625 
Q 56.84375 50.53125 59.078125 45.609375 
z
" id="DejaVuSans-Bold-109"/>
      <path d="M 32.90625 24.609375 
Q 27.4375 24.609375 24.671875 22.75 
Q 21.921875 20.90625 21.921875 17.28125 
Q 21.921875 13.96875 24.140625 12.078125 
Q 26.375 10.203125 30.328125 10.203125 
Q 35.25 10.203125 38.625 13.734375 
Q 42 17.28125 42 22.609375 
L 42 24.609375 
z
M 59.625 31.203125 
L 59.625 0 
L 42 0 
L 42 8.109375 
Q 38.484375 3.125 34.078125 0.84375 
Q 29.6875 -1.421875 23.390625 -1.421875 
Q 14.890625 -1.421875 9.59375 3.53125 
Q 4.296875 8.5 4.296875 16.40625 
Q 4.296875 26.03125 10.90625 30.515625 
Q 17.53125 35.015625 31.6875 35.015625 
L 42 35.015625 
L 42 36.375 
Q 42 40.53125 38.71875 42.453125 
Q 35.453125 44.390625 28.515625 44.390625 
Q 22.90625 44.390625 18.0625 43.265625 
Q 13.234375 42.140625 9.078125 39.890625 
L 9.078125 53.21875 
Q 14.703125 54.59375 20.359375 55.296875 
Q 26.03125 56 31.6875 56 
Q 46.484375 56 53.046875 50.171875 
Q 59.625 44.34375 59.625 31.203125 
z
" id="DejaVuSans-Bold-97"/>
      <path d="M 49.03125 39.796875 
Q 46.734375 40.875 44.453125 41.375 
Q 42.1875 41.890625 39.890625 41.890625 
Q 33.15625 41.890625 29.515625 37.5625 
Q 25.875 33.25 25.875 25.203125 
L 25.875 0 
L 8.40625 0 
L 8.40625 54.6875 
L 25.875 54.6875 
L 25.875 45.703125 
Q 29.25 51.078125 33.609375 53.53125 
Q 37.984375 56 44.09375 56 
Q 44.96875 56 45.984375 55.921875 
Q 47.015625 55.859375 48.96875 55.609375 
z
" id="DejaVuSans-Bold-114"/>
      <path d="M 22.21875 27.984375 
L 2.484375 54.6875 
L 21 54.6875 
L 32.171875 38.484375 
L 43.5 54.6875 
L 62.015625 54.6875 
L 42.28125 28.078125 
L 62.984375 0 
L 44.484375 0 
L 32.171875 17.28125 
L 20.015625 0 
L 1.515625 0 
z
" id="DejaVuSans-Bold-120"/>
     </defs>
     <use xlink:href="#DejaVuSans-Bold-83"/>
     <use x="72.021484" xlink:href="#DejaVuSans-Bold-101"/>
     <use x="139.84375" xlink:href="#DejaVuSans-Bold-110"/>
     <use x="211.035156" xlink:href="#DejaVuSans-Bold-115"/>
     <use x="270.556641" xlink:href="#DejaVuSans-Bold-105"/>
     <use x="304.833984" xlink:href="#DejaVuSans-Bold-116"/>
     <use x="352.636719" xlink:href="#DejaVuSans-Bold-105"/>
     <use x="386.914062" xlink:href="#DejaVuSans-Bold-118"/>
     <use x="452.099609" xlink:href="#DejaVuSans-Bold-105"/>
     <use x="486.376953" xlink:href="#DejaVuSans-Bold-116"/>
     <use x="534.179688" xlink:href="#DejaVuSans-Bold-121"/>
     <use x="599.365234" xlink:href="#DejaVuSans-Bold-32"/>
     <use x="634.179688" xlink:href="#DejaVuSans-Bold-109"/>
     <use x="738.378906" xlink:href="#DejaVuSans-Bold-97"/>
     <use x="805.859375" xlink:href="#DejaVuSans-Bold-116"/>
     <use x="853.662109" xlink:href="#DejaVuSans-Bold-114"/>
     <use x="902.978516" xlink:href="#DejaVuSans-Bold-105"/>
     <use x="937.255859" xlink:href="#DejaVuSans-Bold-120"/>
    </g>
   </g>
   <g id="Poly3DCollection_2">
    <path clip-path="url(#pc613bbd2f2)" d="M 114.48766 124.748843 
L 121.149263 119.113083 
L 136.287842 123.659169 
L 129.730594 129.392301 
z
" style="fill:#877b14;"/>
    <path clip-path="url(#pc613bbd2f2)" d="M 151.687708 128.28372 
L 151.700862 117.306132 
L 167.481933 121.948874 
L 167.355684 132.988783 
z
" style="fill:#1c1937;"/>
    <path clip-path="url(#pc613bbd2f2)" d="M 121.149263 119.113083 
L 119.940802 54.059506 
L 135.711761 58.218487 
L 136.287842 123.659169 
z
" style="fill:#6a600f;"/>
    <path clip-path="url(#pc613bbd2f2)" d="M 145.239454 134.116769 
L 145.206156 123.062005 
L 151.700862 117.306132 
L 151.687708 128.28372 
z
" style="fill:#3c3474;"/>
    <path clip-path="url(#pc613bbd2f2)" d="M 114.48766 124.748843 
L 112.982219 59.215819 
L 119.940802 54.059506 
L 121.149263 119.113083 
z
" style="fill:#e0cc20;"/>
    <path clip-path="url(#pc613bbd2f2)" d="M 145.239454 134.116769 
L 151.687708 128.28372 
L 167.355684 132.988783 
L 161.021261 138.924384 
z
" style="fill:#242046;"/>
    <path clip-path="url(#pc613bbd2f2)" d="M 145.206156 123.062005 
L 161.102717 127.80668 
L 167.481933 121.948874 
L 151.700862 117.306132 
z
" style="fill:#342e65;"/>
    <path clip-path="url(#pc613bbd2f2)" d="M 161.021261 138.924384 
L 167.355684 132.988783 
L 167.481933 121.948874 
L 161.102717 127.80668 
z
" style="fill:#1c1937;"/>
    <path clip-path="url(#pc613bbd2f2)" d="M 129.730594 129.392301 
L 136.287842 123.659169 
L 135.711761 58.218487 
L 128.866393 63.467712 
z
" style="fill:#6a600f;"/>
    <path clip-path="url(#pc613bbd2f2)" d="M 145.239454 134.116769 
L 161.021261 138.924384 
L 161.102717 127.80668 
L 145.206156 123.062005 
z
" style="fill:#3c3474;"/>
    <path clip-path="url(#pc613bbd2f2)" d="M 114.48766 124.748843 
L 129.730594 129.392301 
L 128.866393 63.467712 
L 112.982219 59.215819 
z
" style="fill:#e0cc20;"/>
    <path clip-path="url(#pc613bbd2f2)" d="M 183.298833 137.77648 
L 183.467522 130.079997 
L 199.777212 134.908783 
L 199.524468 142.649007 
z
" style="fill:#1e1233;"/>
    <path clip-path="url(#pc613bbd2f2)" d="M 177.083285 143.817362 
L 177.222147 136.066714 
L 183.467522 130.079997 
L 183.298833 137.77648 
z
" style="fill:#3f256b;"/>
    <path clip-path="url(#pc613bbd2f2)" d="M 177.083285 143.817362 
L 183.298833 137.77648 
L 199.524468 142.649007 
L 193.433056 148.797996 
z
" style="fill:#261741;"/>
    <path clip-path="url(#pc613bbd2f2)" d="M 177.222147 136.066714 
L 193.657278 141.003188 
L 199.777212 134.908783 
L 183.467522 130.079997 
z
" style="fill:#37205d;"/>
    <path clip-path="url(#pc613bbd2f2)" d="M 112.982219 59.215819 
L 128.866393 63.467712 
L 135.711761 58.218487 
L 119.940802 54.059506 
z
" style="fill:#c2b11c;"/>
    <path clip-path="url(#pc613bbd2f2)" d="M 193.433056 148.797996 
L 199.524468 142.649007 
L 199.777212 134.908783 
L 193.657278 141.003188 
z
" style="fill:#1e1233;"/>
    <path clip-path="url(#pc613bbd2f2)" d="M 177.083285 143.817362 
L 193.433056 148.797996 
L 193.657278 141.003188 
L 177.222147 136.066714 
z
" style="fill:#3f256b;"/>
   </g>
   <g id="Poly3DCollection_3">
    <path clip-path="url(#pc613bbd2f2)" d="M 100.731316 136.386801 
L 107.683226 130.505439 
L 123.031522 135.249432 
L 116.185975 141.234628 
z
" style="fill:#877b14;"/>
    <path clip-path="url(#pc613bbd2f2)" d="M 138.650504 140.07709 
L 138.574317 129.708028 
L 154.579662 134.562436 
L 154.547397 144.990648 
z
" style="fill:#1d1736;"/>
    <path clip-path="url(#pc613bbd2f2)" d="M 107.683226 130.505439 
L 105.868357 64.499953 
L 121.866759 68.847986 
L 123.031522 135.249432 
z
" style="fill:#6a600f;"/>
    <path clip-path="url(#pc613bbd2f2)" d="M 131.916203 146.168895 
L 131.792839 135.726587 
L 138.574317 129.708028 
L 138.650504 140.07709 
z
" style="fill:#3d3173;"/>
    <path clip-path="url(#pc613bbd2f2)" d="M 100.731316 136.386801 
L 98.593311 69.89091 
L 105.868357 64.499953 
L 107.683226 130.505439 
z
" style="fill:#e0cc20;"/>
    <path clip-path="url(#pc613bbd2f2)" d="M 131.916203 146.168895 
L 138.650504 140.07709 
L 154.547397 144.990648 
L 147.929436 151.191936 
z
" style="fill:#251e45;"/>
    <path clip-path="url(#pc613bbd2f2)" d="M 131.792839 135.726587 
L 147.91612 140.689911 
L 154.579662 134.562436 
L 138.574317 129.708028 
z
" style="fill:#352b64;"/>
    <path clip-path="url(#pc613bbd2f2)" d="M 147.929436 151.191936 
L 154.547397 144.990648 
L 154.579662 134.562436 
L 147.91612 140.689911 
z
" style="fill:#1d1736;"/>
    <path clip-path="url(#pc613bbd2f2)" d="M 116.185975 141.234628 
L 123.031522 135.249432 
L 121.866759 68.847986 
L 114.707187 74.338296 
z
" style="fill:#6a600f;"/>
    <path clip-path="url(#pc613bbd2f2)" d="M 131.916203 146.168895 
L 147.929436 151.191936 
L 147.91612 140.689911 
L 131.792839 135.726587 
z
" style="fill:#3d3173;"/>
    <path clip-path="url(#pc613bbd2f2)" d="M 100.731316 136.386801 
L 116.185975 141.234628 
L 114.707187 74.338296 
L 98.593311 69.89091 
z
" style="fill:#e0cc20;"/>
    <path clip-path="url(#pc613bbd2f2)" d="M 170.729685 149.992418 
L 170.799643 144.920291 
L 187.331413 149.983788 
L 187.205122 155.084797 
z
" style="fill:#1e0c2e;"/>
    <path clip-path="url(#pc613bbd2f2)" d="M 164.233381 156.306167 
L 164.282119 151.198277 
L 170.799643 144.920291 
L 170.729685 149.992418 
z
" style="fill:#401961;"/>
    <path clip-path="url(#pc613bbd2f2)" d="M 164.233381 156.306167 
L 170.729685 149.992418 
L 187.205122 155.084797 
L 180.836026 161.514095 
z
" style="fill:#270f3b;"/>
    <path clip-path="url(#pc613bbd2f2)" d="M 164.282119 151.198277 
L 180.941977 156.377061 
L 187.331413 149.983788 
L 170.799643 144.920291 
z
" style="fill:#371654;"/>
    <path clip-path="url(#pc613bbd2f2)" d="M 180.836026 161.514095 
L 187.205122 155.084797 
L 187.331413 149.983788 
L 180.941977 156.377061 
z
" style="fill:#1e0c2e;"/>
    <path clip-path="url(#pc613bbd2f2)" d="M 98.593311 69.89091 
L 114.707187 74.338296 
L 121.866759 68.847986 
L 105.868357 64.499953 
z
" style="fill:#c2b11c;"/>
    <path clip-path="url(#pc613bbd2f2)" d="M 164.233381 156.306167 
L 180.836026 161.514095 
L 180.941977 156.377061 
L 164.282119 151.198277 
z
" style="fill:#401961;"/>
   </g>
   <g id="Poly3DCollection_4">
    <path clip-path="url(#pc613bbd2f2)" d="M 86.365468 148.540403 
L 93.627084 142.397028 
L 109.189097 147.352136 
L 102.035813 153.606394 
z
" style="fill:#877b14;"/>
    <path clip-path="url(#pc613bbd2f2)" d="M 125.031688 152.396584 
L 124.859075 141.882308 
L 141.101548 146.958268 
L 141.162513 157.532807 
z
" style="fill:#1d1736;"/>
    <path clip-path="url(#pc613bbd2f2)" d="M 93.627084 142.397028 
L 91.151611 75.398861 
L 107.382138 79.949005 
L 109.189097 147.352136 
z
" style="fill:#6a600f;"/>
    <path clip-path="url(#pc613bbd2f2)" d="M 117.991875 158.764753 
L 117.767779 148.175854 
L 124.859075 141.882308 
L 125.031688 152.396584 
z
" style="fill:#3d3173;"/>
    <path clip-path="url(#pc613bbd2f2)" d="M 86.365468 148.540403 
L 83.537914 81.04069 
L 91.151611 75.398861 
L 93.627084 142.397028 
z
" style="fill:#e0cc20;"/>
    <path clip-path="url(#pc613bbd2f2)" d="M 117.991875 158.764753 
L 125.031688 152.396584 
L 141.162513 157.532807 
L 134.24154 164.018029 
z
" style="fill:#251e45;"/>
    <path clip-path="url(#pc613bbd2f2)" d="M 117.767779 148.175854 
L 134.130739 153.368315 
L 141.101548 146.958268 
L 124.859075 141.882308 
z
" style="fill:#352b64;"/>
    <path clip-path="url(#pc613bbd2f2)" d="M 134.24154 164.018029 
L 141.162513 157.532807 
L 141.101548 146.958268 
L 134.130739 153.368315 
z
" style="fill:#1d1736;"/>
    <path clip-path="url(#pc613bbd2f2)" d="M 102.035813 153.606394 
L 109.189097 147.352136 
L 107.382138 79.949005 
L 99.886128 85.697237 
z
" style="fill:#6a600f;"/>
    <path clip-path="url(#pc613bbd2f2)" d="M 117.991875 158.764753 
L 134.24154 164.018029 
L 134.130739 153.368315 
L 117.767779 148.175854 
z
" style="fill:#3d3173;"/>
    <path clip-path="url(#pc613bbd2f2)" d="M 86.365468 148.540403 
L 102.035813 153.606394 
L 99.886128 85.697237 
L 83.537914 81.04069 
z
" style="fill:#e0cc20;"/>
    <path clip-path="url(#pc613bbd2f2)" d="M 157.58951 162.763336 
L 157.616033 157.620324 
L 174.405535 162.918382 
L 174.320913 168.09079 
z
" style="fill:#1e0c2e;"/>
    <path clip-path="url(#pc613bbd2f2)" d="M 150.792988 169.368867 
L 150.796264 164.189457 
L 157.616033 157.620324 
L 157.58951 162.763336 
z
" style="fill:#401961;"/>
    <path clip-path="url(#pc613bbd2f2)" d="M 150.792988 169.368867 
L 157.58951 162.763336 
L 174.320913 168.09079 
L 167.654703 174.82001 
z
" style="fill:#270f3b;"/>
    <path clip-path="url(#pc613bbd2f2)" d="M 150.796264 164.189457 
L 167.716991 169.610952 
L 174.405535 162.918382 
L 157.616033 157.620324 
z
" style="fill:#371654;"/>
    <path clip-path="url(#pc613bbd2f2)" d="M 167.654703 174.82001 
L 174.320913 168.09079 
L 174.405535 162.918382 
L 167.716991 169.610952 
z
" style="fill:#1e0c2e;"/>
    <path clip-path="url(#pc613bbd2f2)" d="M 83.537914 81.04069 
L 99.886128 85.697237 
L 107.382138 79.949005 
L 91.151611 75.398861 
z
" style="fill:#c2b11c;"/>
    <path clip-path="url(#pc613bbd2f2)" d="M 150.792988 169.368867 
L 167.654703 174.82001 
L 167.716991 169.610952 
L 150.796264 164.189457 
z
" style="fill:#401961;"/>
   </g>
  </g>
 </g>
 <defs>
  <clipPath id="pc613bbd2f2">
   <rect height="166.32" width="166.32" x="64.44" y="25.92"/>
  </clipPath>
 </defs>
</svg>
