<?xml version="1.0" encoding="UTF-8"?>
<svg id="Annotation" xmlns="http://www.w3.org/2000/svg" xmlns:xlink="http://www.w3.org/1999/xlink" viewBox="0 0 99.21 28.35">
  <defs>
    <style>
      .cls-1 {
        fill: #231f20;
      }

      .cls-2 {
        fill: url(#linear-gradient);
      }
    </style>
    <linearGradient id="linear-gradient" x1="6.85" y1="15.93" x2="92.22" y2="15.93" gradientUnits="userSpaceOnUse">
      <stop offset="0" stop-color="#94a999"/>
      <stop offset=".51" stop-color="#7d9987"/>
      <stop offset="1" stop-color="#527b66"/>
    </linearGradient>
  </defs>
  <g>
    <path class="cls-1" d="M7.38,26.61c-.16,0-.29-.05-.38-.14-.1-.1-.14-.22-.14-.38v-15.98c0-.16.05-.29.14-.38s.22-.14.38-.14h.41c.16,0,.29.05.38.14s.14.22.14.38v1.13c.4-.54.92-1,1.57-1.36.65-.36,1.47-.54,2.46-.54s1.74.16,2.38.49c.64.33,1.16.76,1.56,1.31s.7,1.15.89,1.82c.19.67.3,1.36.31,2.06.02.24.02.5.02.79s0,.55-.02.79c-.02.7-.12,1.39-.31,2.06-.19.67-.49,1.28-.89,1.82-.4.54-.92.98-1.56,1.31-.64.33-1.43.49-2.38.49-.99,0-1.81-.18-2.46-.55-.65-.37-1.17-.82-1.57-1.34v5.69c0,.16-.05.29-.14.38-.1.1-.22.14-.38.14h-.41ZM12.2,20.89c.94,0,1.69-.21,2.23-.62s.94-.96,1.18-1.63c.24-.67.38-1.39.41-2.16.02-.45.02-.9,0-1.34-.03-.77-.17-1.49-.41-2.16-.24-.67-.63-1.22-1.18-1.63-.54-.42-1.29-.62-2.23-.62s-1.65.22-2.21.65c-.56.43-.97.97-1.24,1.62s-.41,1.3-.44,1.96c-.02.24-.02.55-.02.94s0,.7.02.94c.02.64.16,1.27.44,1.9.28.62.7,1.14,1.27,1.56s1.29.62,2.17.62Z"/>
    <path class="cls-1" d="M22.43,26.61c-.13,0-.24-.05-.34-.14-.1-.1-.14-.21-.14-.34,0-.06.01-.13.04-.2.02-.07.06-.16.11-.28l1.85-4.32-4.58-10.8c-.1-.24-.14-.4-.14-.48,0-.13.05-.24.14-.34s.21-.14.34-.14h.5c.16,0,.28.04.37.11.09.07.15.16.18.25l4.03,9.5,4.13-9.5c.05-.1.11-.18.19-.25.08-.07.2-.11.36-.11h.48c.13,0,.24.05.34.14.1.1.14.21.14.34,0,.08-.05.24-.14.48l-6.82,15.72c-.05.1-.11.18-.19.25-.08.07-.2.11-.36.11h-.48Z"/>
    <path class="cls-1" d="M33.92,22.05c-.16,0-.29-.05-.38-.14-.1-.1-.14-.22-.14-.38V5.8c0-.18.05-.31.14-.41s.22-.14.38-.14h9.26c.18,0,.31.05.41.14s.14.23.14.41v.36c0,.16-.05.29-.14.38-.1.1-.23.14-.41.14h-8.28v6.46h7.8c.18,0,.31.05.41.14s.14.23.14.41v.36c0,.16-.05.29-.14.38-.1.1-.23.14-.41.14h-7.8v6.94c0,.16-.05.29-.14.38-.1.1-.23.14-.41.14h-.43Z"/>
    <path class="cls-1" d="M47.6,22.05c-.16,0-.29-.05-.38-.14-.1-.1-.14-.22-.14-.38V5.8c0-.18.05-.31.14-.41s.22-.14.38-.14h9.36c.18,0,.31.05.41.14.1.1.14.23.14.41v.36c0,.16-.05.29-.14.38-.1.1-.23.14-.41.14h-8.38v6.12h7.85c.18,0,.31.05.41.14.1.1.14.23.14.41v.36c0,.16-.05.29-.14.38-.1.1-.23.14-.41.14h-7.85v6.36h8.57c.18,0,.31.05.41.14s.14.23.14.41v.36c0,.16-.05.29-.14.38s-.23.14-.41.14h-9.55Z"/>
    <path class="cls-1" d="M61.83,22.05c-.16,0-.29-.05-.4-.14-.1-.1-.16-.22-.16-.38V5.8c0-.18.05-.31.16-.41.1-.1.24-.14.4-.14h.6c.16,0,.28.04.36.12.08.08.13.14.14.19l5.45,10.61,5.47-10.61s.08-.11.16-.19c.07-.08.19-.12.35-.12h.58c.18,0,.31.05.41.14.1.1.14.23.14.41v15.72c0,.16-.05.29-.14.38-.1.1-.23.14-.41.14h-.43c-.16,0-.29-.05-.38-.14-.1-.1-.14-.22-.14-.38v-13.01l-4.58,9.02c-.06.16-.16.28-.28.36s-.28.12-.47.12h-.53c-.19,0-.34-.04-.46-.12s-.21-.2-.29-.36l-4.58-9.02v13.01c0,.16-.05.29-.14.38s-.22.14-.38.14h-.43Z"/>
    <path class="cls-1" d="M86.05,22.29c-1.3,0-2.4-.24-3.32-.72-.92-.48-1.63-1.22-2.12-2.21-.5-.99-.74-2.26-.74-3.82V5.8c0-.18.05-.31.14-.41.1-.1.22-.14.38-.14h.43c.18,0,.31.05.41.14.1.1.14.23.14.41v9.82c0,1.79.42,3.11,1.26,3.96.84.85,1.98,1.27,3.42,1.27s2.56-.42,3.4-1.27c.84-.85,1.26-2.17,1.26-3.96V5.8c0-.18.05-.31.16-.41.1-.1.24-.14.4-.14h.43c.16,0,.29.05.38.14.1.1.14.23.14.41v9.74c0,1.55-.24,2.82-.73,3.82-.49.99-1.19,1.73-2.1,2.21-.91.48-2.02.72-3.34.72Z"/>
  </g>
  <g>
    <path class="cls-2" d="M7.38,26.61c-.16,0-.29-.05-.38-.14-.1-.1-.14-.22-.14-.38v-15.98c0-.16.05-.29.14-.38s.22-.14.38-.14h.41c.16,0,.29.05.38.14s.14.22.14.38v1.13c.4-.54.92-1,1.57-1.36.65-.36,1.47-.54,2.46-.54s1.74.16,2.38.49c.64.33,1.16.76,1.56,1.31s.7,1.15.89,1.82c.19.67.3,1.36.31,2.06.02.24.02.5.02.79s0,.55-.02.79c-.02.7-.12,1.39-.31,2.06-.19.67-.49,1.28-.89,1.82-.4.54-.92.98-1.56,1.31-.64.33-1.43.49-2.38.49-.99,0-1.81-.18-2.46-.55-.65-.37-1.17-.82-1.57-1.34v5.69c0,.16-.05.29-.14.38-.1.1-.22.14-.38.14h-.41ZM12.2,20.89c.94,0,1.69-.21,2.23-.62s.94-.96,1.18-1.63c.24-.67.38-1.39.41-2.16.02-.45.02-.9,0-1.34-.03-.77-.17-1.49-.41-2.16-.24-.67-.63-1.22-1.18-1.63-.54-.42-1.29-.62-2.23-.62s-1.65.22-2.21.65c-.56.43-.97.97-1.24,1.62s-.41,1.3-.44,1.96c-.02.24-.02.55-.02.94s0,.7.02.94c.02.64.16,1.27.44,1.9.28.62.7,1.14,1.27,1.56s1.29.62,2.17.62Z"/>
    <path class="cls-2" d="M22.43,26.61c-.13,0-.24-.05-.34-.14-.1-.1-.14-.21-.14-.34,0-.06.01-.13.04-.2.02-.07.06-.16.11-.28l1.85-4.32-4.58-10.8c-.1-.24-.14-.4-.14-.48,0-.13.05-.24.14-.34s.21-.14.34-.14h.5c.16,0,.28.04.37.11.09.07.15.16.18.25l4.03,9.5,4.13-9.5c.05-.1.11-.18.19-.25.08-.07.2-.11.36-.11h.48c.13,0,.24.05.34.14.1.1.14.21.14.34,0,.08-.05.24-.14.48l-6.82,15.72c-.05.1-.11.18-.19.25-.08.07-.2.11-.36.11h-.48Z"/>
    <path class="cls-2" d="M33.92,22.05c-.16,0-.29-.05-.38-.14-.1-.1-.14-.22-.14-.38V5.8c0-.18.05-.31.14-.41s.22-.14.38-.14h9.26c.18,0,.31.05.41.14s.14.23.14.41v.36c0,.16-.05.29-.14.38-.1.1-.23.14-.41.14h-8.28v6.46h7.8c.18,0,.31.05.41.14s.14.23.14.41v.36c0,.16-.05.29-.14.38-.1.1-.23.14-.41.14h-7.8v6.94c0,.16-.05.29-.14.38-.1.1-.23.14-.41.14h-.43Z"/>
    <path class="cls-2" d="M47.6,22.05c-.16,0-.29-.05-.38-.14-.1-.1-.14-.22-.14-.38V5.8c0-.18.05-.31.14-.41s.22-.14.38-.14h9.36c.18,0,.31.05.41.14.1.1.14.23.14.41v.36c0,.16-.05.29-.14.38-.1.1-.23.14-.41.14h-8.38v6.12h7.85c.18,0,.31.05.41.14.1.1.14.23.14.41v.36c0,.16-.05.29-.14.38-.1.1-.23.14-.41.14h-7.85v6.36h8.57c.18,0,.31.05.41.14s.14.23.14.41v.36c0,.16-.05.29-.14.38s-.23.14-.41.14h-9.55Z"/>
    <path class="cls-2" d="M61.83,22.05c-.16,0-.29-.05-.4-.14-.1-.1-.16-.22-.16-.38V5.8c0-.18.05-.31.16-.41.1-.1.24-.14.4-.14h.6c.16,0,.28.04.36.12.08.08.13.14.14.19l5.45,10.61,5.47-10.61s.08-.11.16-.19c.07-.08.19-.12.35-.12h.58c.18,0,.31.05.41.14.1.1.14.23.14.41v15.72c0,.16-.05.29-.14.38-.1.1-.23.14-.41.14h-.43c-.16,0-.29-.05-.38-.14-.1-.1-.14-.22-.14-.38v-13.01l-4.58,9.02c-.06.16-.16.28-.28.36s-.28.12-.47.12h-.53c-.19,0-.34-.04-.46-.12s-.21-.2-.29-.36l-4.58-9.02v13.01c0,.16-.05.29-.14.38s-.22.14-.38.14h-.43Z"/>
    <path class="cls-2" d="M86.05,22.29c-1.3,0-2.4-.24-3.32-.72-.92-.48-1.63-1.22-2.12-2.21-.5-.99-.74-2.26-.74-3.82V5.8c0-.18.05-.31.14-.41.1-.1.22-.14.38-.14h.43c.18,0,.31.05.41.14.1.1.14.23.14.41v9.82c0,1.79.42,3.11,1.26,3.96.84.85,1.98,1.27,3.42,1.27s2.56-.42,3.4-1.27c.84-.85,1.26-2.17,1.26-3.96V5.8c0-.18.05-.31.16-.41.1-.1.24-.14.4-.14h.43c.16,0,.29.05.38.14.1.1.14.23.14.41v9.74c0,1.55-.24,2.82-.73,3.82-.49.99-1.19,1.73-2.1,2.21-.91.48-2.02.72-3.34.72Z"/>
  </g>
</svg>