<?xml version="1.0" encoding="UTF-8"?>
<svg xmlns="http://www.w3.org/2000/svg" viewBox="0 0 226.77 70.87">
  <defs>
    <style>
      .cls-1, .cls-2, .cls-3 {
        fill: #231f20;
      }

      .cls-4 {
        fill: #fff;
      }

      .cls-5, .cls-2, .cls-3, .cls-6, .cls-7, .cls-8 {
        stroke: #231f20;
      }

      .cls-5, .cls-3, .cls-9, .cls-7, .cls-8 {
        stroke-width: .75px;
      }

      .cls-5, .cls-6, .cls-7 {
        stroke-linejoin: round;
      }

      .cls-5, .cls-6, .cls-7, .cls-8 {
        fill: none;
      }

      .cls-2, .cls-3, .cls-9, .cls-8 {
        stroke-miterlimit: 10;
      }

      .cls-2, .cls-6 {
        stroke-width: .5px;
      }

      .cls-9 {
        fill: #1c75bc;
        stroke: #1c75bc;
      }

      .cls-7 {
        stroke-dasharray: 1.41 1.41;
      }
    </style>
  </defs>
  <rect class="cls-4" width="226.77" height="70.87"/>
  <g id="Background">
    <line class="cls-3" x1="22.82" y1="30.09" x2="192.9" y2="30.09"/>
    <circle class="cls-8" cx="22.72" cy="32.21" r="2.13"/>
    <line class="cls-8" x1="21.28" y1="33.66" x2="14.19" y2="40.74"/>
    <line class="cls-8" x1="24.16" y1="33.66" x2="31.25" y2="40.74"/>
    <line class="cls-8" x1="14.22" y1="40.74" x2="31.23" y2="40.74"/>
    <line class="cls-8" x1="14.19" y1="40.74" x2="10.18" y2="44.76"/>
    <line class="cls-8" x1="26.74" y1="40.74" x2="22.72" y2="44.76"/>
    <line class="cls-8" x1="30.96" y1="40.74" x2="26.95" y2="44.76"/>
    <line class="cls-8" x1="18.49" y1="40.74" x2="14.48" y2="44.76"/>
    <line class="cls-8" x1="22.72" y1="40.74" x2="18.71" y2="44.76"/>
    <circle class="cls-8" cx="192.41" cy="32.21" r="2.13"/>
    <line class="cls-8" x1="190.96" y1="33.66" x2="183.88" y2="40.74"/>
    <line class="cls-8" x1="193.85" y1="33.66" x2="200.93" y2="40.74"/>
    <line class="cls-8" x1="182.75" y1="43.08" x2="201.17" y2="43.08"/>
    <line class="cls-8" x1="183.88" y1="43.08" x2="179.86" y2="47.09"/>
    <line class="cls-8" x1="196.42" y1="43.08" x2="192.41" y2="47.09"/>
    <line class="cls-8" x1="200.65" y1="43.08" x2="196.63" y2="47.09"/>
    <line class="cls-8" x1="188.18" y1="43.08" x2="184.16" y2="47.09"/>
    <line class="cls-8" x1="192.41" y1="43.08" x2="188.39" y2="47.09"/>
    <line class="cls-8" x1="183.9" y1="40.74" x2="200.91" y2="40.74"/>
    <circle class="cls-3" cx="38.97" cy="30.09" r="1.42"/>
    <circle class="cls-3" cx="56.37" cy="30.09" r="1.42"/>
    <circle class="cls-9" cx="73.77" cy="30.09" r="4.25"/>
    <circle class="cls-3" cx="91.16" cy="30.09" r="1.42"/>
    <circle class="cls-3" cx="108.56" cy="30.09" r="1.42"/>
    <circle class="cls-3" cx="125.96" cy="30.09" r="1.42"/>
    <circle class="cls-9" cx="143.35" cy="30.09" r="2.83"/>
    <circle class="cls-3" cx="160.75" cy="30.09" r="1.42"/>
    <circle class="cls-3" cx="178.15" cy="30.09" r="1.42"/>
    <line class="cls-2" x1="23.52" y1="58.67" x2="73.77" y2="58.67"/>
    <line class="cls-2" x1="23.52" y1="55.28" x2="23.52" y2="62.37"/>
    <line class="cls-2" x1="73.77" y1="55.13" x2="73.77" y2="62.21"/>
    <g>
      <line class="cls-5" x1="196.24" y1="30.09" x2="196.99" y2="30.09"/>
      <line class="cls-7" x1="198.4" y1="30.09" x2="206.13" y2="30.09"/>
      <line class="cls-5" x1="206.83" y1="30.09" x2="207.58" y2="30.09"/>
    </g>
    <rect class="cls-1" x="210.63" y="23" width="5.97" height="14.17"/>
    <line class="cls-2" x1="73.77" y1="58.9" x2="141.71" y2="58.9"/>
    <line class="cls-2" x1="141.71" y1="58.9" x2="191.96" y2="58.9"/>
    <line class="cls-2" x1="192.41" y1="55.35" x2="192.41" y2="62.44"/>
    <line class="cls-2" x1="143.35" y1="55.13" x2="143.35" y2="62.21"/>
  </g>
  <g id="Annotation">
    <g>
      <path class="cls-1" d="M142.89,39.79l.49,4.27,3.07-4.27h1.29v.14c-.28.02-.45.04-.5.05-.09.03-.17.1-.24.2-.07.1-.15.3-.23.59l-.98,3.36c-.06.2-.09.35-.09.46,0,.1.04.18.11.23.1.08.25.11.47.11h.09l-.04.14h-2.23l.04-.14h.11c.2,0,.35-.03.45-.09.08-.04.15-.12.22-.24.06-.12.15-.37.27-.77l.88-3.07-3.09,4.31h-.16l-.5-4.31-.95,3.28c-.08.28-.12.47-.12.56s.04.17.11.22.24.08.51.1l-.04.14h-1.75l.04-.14h.11c.26,0,.44-.07.56-.2.08-.09.17-.3.26-.61l1.15-3.95c-.09-.09-.17-.15-.25-.18s-.22-.06-.43-.07l.04-.14h1.32Z"/>
      <path class="cls-1" d="M148.63,47.75h-1.54v-.08c.78-.69,1.3-1.22,1.55-1.61.12-.18.17-.37.17-.57,0-.16-.05-.29-.15-.39-.1-.1-.22-.15-.38-.15-.21,0-.39.1-.53.31l-.08-.04c.08-.2.19-.35.34-.46.15-.11.31-.16.48-.16.2,0,.36.07.49.2.13.13.2.3.2.49,0,.13-.02.26-.07.37-.07.18-.21.38-.4.6-.3.34-.69.72-1.19,1.16h.77c.12,0,.23-.03.31-.08.08-.05.14-.12.17-.21h.09l-.26.62Z"/>
    </g>
    <g>
      <path class="cls-1" d="M72.63,39.79l.49,4.27,3.07-4.27h1.29v.14c-.28.02-.45.04-.5.05-.09.03-.16.1-.24.2s-.15.3-.23.59l-.98,3.36c-.06.2-.09.35-.09.46,0,.1.04.18.11.23.1.08.26.11.47.11h.09l-.04.14h-2.23l.04-.14h.11c.2,0,.35-.03.45-.09.08-.04.15-.12.22-.24.06-.12.15-.37.27-.77l.88-3.07-3.09,4.31h-.16l-.5-4.31-.95,3.28c-.08.28-.12.47-.12.56s.04.17.11.22.24.08.51.1l-.04.14h-1.75l.04-.14h.11c.26,0,.44-.07.56-.2.08-.09.17-.3.26-.61l1.15-3.95c-.09-.09-.17-.15-.25-.18s-.22-.06-.43-.07l.04-.14h1.32Z"/>
      <path class="cls-1" d="M78.71,44.6l-.73,2.55c-.04.15-.06.26-.06.33,0,.06.02.1.06.13.04.03.13.05.27.06l-.02.08h-1.17l.03-.08c.12,0,.21-.01.25-.03.06-.03.11-.06.14-.11.05-.07.1-.2.15-.38l.53-1.83c.03-.11.05-.17.05-.19,0-.03,0-.06,0-.09,0-.05-.01-.09-.04-.12s-.07-.05-.12-.05c-.04,0-.1,0-.18.03l-.03-.08.77-.21h.11Z"/>
    </g>
    <g>
      <path class="cls-1" d="M42.07,53.65c0-.6.09-1.12.27-1.56.18-.44.42-.76.73-.97.23-.17.48-.25.73-.25.41,0,.77.21,1.09.62.4.51.61,1.21.61,2.09,0,.61-.09,1.14-.27,1.57s-.4.74-.68.94c-.27.19-.54.29-.79.29-.51,0-.93-.3-1.26-.89-.28-.5-.43-1.11-.43-1.82ZM42.83,53.75c0,.73.09,1.32.27,1.79.15.39.37.58.66.58.14,0,.29-.06.44-.19.15-.13.27-.34.34-.63.12-.45.18-1.08.18-1.89,0-.6-.06-1.11-.19-1.51-.09-.3-.21-.51-.36-.64-.11-.09-.24-.13-.39-.13-.18,0-.33.08-.47.24-.19.22-.31.56-.38,1.02-.07.46-.1.92-.1,1.37Z"/>
      <path class="cls-1" d="M46.78,55.51c.12,0,.23.04.31.13.08.08.12.19.12.31s-.04.22-.13.31c-.08.08-.19.13-.31.13s-.22-.04-.31-.13c-.08-.08-.13-.19-.13-.31s.04-.23.13-.31c.08-.08.19-.12.31-.12Z"/>
      <path class="cls-1" d="M48.19,51.98c.15-.36.34-.63.57-.83.23-.19.52-.29.86-.29.42,0,.75.14.98.41.17.21.26.43.26.66,0,.38-.24.78-.73,1.2.33.13.57.31.74.55.17.24.25.52.25.84,0,.46-.15.86-.44,1.19-.38.44-.93.66-1.65.66-.36,0-.6-.04-.73-.13-.13-.09-.19-.18-.19-.29,0-.08.03-.14.09-.2.06-.06.13-.09.22-.09.06,0,.13,0,.2.03.04.01.14.06.3.14s.26.13.32.15c.1.03.2.04.31.04.27,0,.5-.1.69-.31.2-.21.29-.45.29-.73,0-.21-.05-.41-.14-.6-.07-.15-.14-.26-.22-.33-.11-.1-.27-.2-.46-.28-.2-.08-.39-.13-.6-.13h-.12v-.12c.21-.03.41-.1.62-.22.21-.12.36-.27.45-.44s.14-.36.14-.57c0-.27-.08-.49-.25-.65-.17-.17-.38-.25-.63-.25-.4,0-.74.22-1.01.65l-.13-.06Z"/>
      <path class="cls-1" d="M56.37,54.8l.13.03-.45,1.44h-4.1v-.14h.2c.22,0,.38-.07.48-.22.05-.08.08-.28.08-.58v-3.42c0-.33-.04-.54-.11-.62-.1-.12-.25-.17-.45-.17h-.2v-.14h2.4v.14c-.28,0-.48.02-.59.08s-.19.12-.23.21c-.04.08-.06.28-.06.6v3.33c0,.22.02.36.06.45.03.05.08.09.14.12.06.03.27.04.61.04h.39c.41,0,.69-.03.86-.09.16-.06.31-.17.45-.32s.27-.39.41-.72Z"/>
    </g>
    <path class="cls-1" d="M42.12,9.79l-.61,2.09h.5c.35,0,.61-.05.77-.16s.3-.31.41-.6h.14l-.54,1.92h-.16c.05-.16.07-.3.07-.41s-.02-.2-.07-.27-.11-.12-.19-.15-.25-.05-.5-.05h-.5l-.51,1.75c-.05.17-.07.3-.07.39,0,.07.03.13.1.18.04.04.15.05.33.05h.47c.51,0,.91-.09,1.22-.27s.58-.49.82-.94h.14l-.5,1.47h-4.09l.05-.14c.2,0,.34-.02.41-.05.1-.05.18-.11.23-.18.07-.11.15-.33.25-.67l.93-3.2c.07-.26.11-.45.11-.59,0-.1-.03-.18-.1-.23s-.2-.08-.4-.08h-.08l.05-.14h3.8l-.33,1.28h-.14c.02-.12.03-.22.03-.3,0-.14-.03-.25-.1-.35-.09-.12-.22-.21-.39-.27-.12-.05-.41-.07-.86-.07h-.67Z"/>
    <path class="cls-6" d="M30.79,30.09c-.34-.81-2.15-5.34,0-10.44,2.06-4.89,6.28-6.78,7.15-7.15"/>
    <g>
      <path class="cls-1" d="M162.26,53.88c0-.6.09-1.12.27-1.56.18-.44.42-.76.73-.97.23-.17.48-.25.73-.25.41,0,.77.21,1.09.62.4.51.61,1.21.61,2.09,0,.61-.09,1.14-.27,1.57-.18.43-.4.74-.68.94-.28.19-.54.29-.79.29-.51,0-.93-.3-1.26-.89-.28-.5-.43-1.11-.43-1.82ZM163.03,53.98c0,.73.09,1.32.27,1.79.15.39.37.58.66.58.14,0,.29-.06.44-.19.15-.13.27-.34.34-.63.12-.45.18-1.08.18-1.89,0-.6-.06-1.11-.19-1.51-.09-.3-.21-.51-.36-.64-.11-.09-.24-.13-.39-.13-.18,0-.33.08-.47.24-.19.22-.32.56-.38,1.02-.07.46-.1.92-.1,1.37Z"/>
      <path class="cls-1" d="M166.98,55.74c.12,0,.22.04.31.13.08.08.12.19.12.31s-.04.22-.13.31c-.08.08-.19.13-.31.13s-.22-.04-.31-.13-.13-.19-.13-.31.04-.23.13-.31c.08-.08.19-.12.31-.12Z"/>
      <path class="cls-1" d="M168.38,52.21c.15-.36.34-.63.57-.83.23-.19.52-.29.86-.29.42,0,.75.14.98.41.17.21.26.43.26.66,0,.38-.24.78-.73,1.2.33.13.57.31.74.55.17.24.25.52.25.84,0,.46-.15.86-.44,1.19-.38.44-.93.66-1.65.66-.36,0-.6-.04-.73-.13-.13-.09-.19-.18-.19-.29,0-.08.03-.14.09-.2.06-.06.13-.09.22-.09.06,0,.13,0,.2.03.04.01.14.06.3.14s.26.13.32.15c.1.03.2.04.31.04.27,0,.5-.1.69-.31.2-.21.29-.45.29-.73,0-.21-.05-.41-.14-.6-.07-.15-.14-.26-.22-.33-.11-.1-.27-.2-.46-.28-.2-.08-.39-.13-.6-.13h-.12v-.12c.21-.03.41-.1.62-.22.21-.12.36-.27.45-.44s.14-.36.14-.57c0-.27-.08-.49-.25-.65-.17-.17-.38-.25-.63-.25-.4,0-.74.22-1.01.65l-.13-.06Z"/>
      <path class="cls-1" d="M176.56,55.03l.13.03-.45,1.44h-4.1v-.14h.2c.22,0,.38-.07.48-.22.05-.08.08-.28.08-.58v-3.42c0-.33-.04-.54-.11-.62-.1-.12-.25-.17-.45-.17h-.2v-.14h2.4v.14c-.28,0-.48.02-.59.08s-.19.12-.23.21c-.04.08-.06.28-.06.6v3.33c0,.22.02.36.06.45.03.05.08.09.14.12.06.03.27.04.61.04h.39c.41,0,.69-.03.86-.09.16-.06.31-.17.45-.32.13-.15.27-.39.41-.72Z"/>
    </g>
    <g>
      <path class="cls-1" d="M101.39,53.88c0-.6.09-1.12.27-1.56.18-.44.42-.76.73-.97.23-.17.48-.25.73-.25.41,0,.77.21,1.09.62.4.51.61,1.21.61,2.09,0,.62-.09,1.14-.27,1.57s-.4.74-.68.94c-.27.19-.54.29-.79.29-.51,0-.93-.3-1.26-.89-.28-.5-.43-1.11-.43-1.82ZM102.15,53.98c0,.73.09,1.32.27,1.79.15.39.37.58.66.58.14,0,.29-.06.44-.19.15-.13.27-.34.34-.63.12-.45.18-1.08.18-1.89,0-.6-.06-1.11-.19-1.51-.09-.3-.21-.51-.36-.64-.11-.09-.24-.13-.39-.13-.18,0-.33.08-.47.24-.19.22-.31.56-.38,1.02-.07.46-.1.92-.1,1.37Z"/>
      <path class="cls-1" d="M106.1,55.74c.12,0,.23.04.31.13.08.08.12.19.12.31s-.04.22-.13.31c-.08.08-.19.13-.31.13s-.22-.04-.31-.13c-.08-.08-.13-.19-.13-.31s.04-.22.13-.31c.08-.08.19-.12.31-.12Z"/>
      <path class="cls-1" d="M110.82,54.54v.55h-.71v1.4h-.64v-1.4h-2.24v-.5l2.46-3.51h.43v3.45h.71ZM109.47,54.54v-2.63l-1.86,2.63h1.86Z"/>
      <path class="cls-1" d="M115.68,55.03l.13.03-.45,1.44h-4.1v-.14h.2c.22,0,.38-.07.48-.22.05-.08.08-.28.08-.58v-3.42c0-.33-.04-.54-.11-.62-.1-.11-.25-.17-.45-.17h-.2v-.14h2.4v.14c-.28,0-.48.02-.59.08s-.19.12-.23.21c-.04.08-.06.28-.06.6v3.33c0,.22.02.37.06.45.03.05.08.1.14.12.06.03.27.04.61.04h.39c.41,0,.69-.03.85-.09.16-.06.31-.17.45-.32.14-.15.27-.39.41-.72Z"/>
    </g>
  </g>
</svg>