<svg xmlns="http://www.w3.org/2000/svg" viewBox="0 0 226.77 70.87"><defs><style>.cls-1,.cls-4,.cls-7{fill:#231f20;}.cls-1,.cls-2,.cls-4,.cls-5,.cls-6,.cls-8{stroke:#231f20;}.cls-1,.cls-2,.cls-3,.cls-4{stroke-miterlimit:10;}.cls-1,.cls-2,.cls-3,.cls-5,.cls-6{stroke-width:0.75px;}.cls-2,.cls-5,.cls-6,.cls-8{fill:none;}.cls-3{fill:#1b75bc;stroke:#1b75bc;}.cls-4,.cls-8{stroke-width:0.5px;}.cls-5,.cls-6,.cls-8{stroke-linejoin:round;}.cls-6{stroke-dasharray:1.41 1.41;}</style></defs><title>Figure 7</title><g id="Background"><line class="cls-1" x1="22.82" y1="30.09" x2="192.9" y2="30.09"/><circle class="cls-2" cx="22.72" cy="32.21" r="2.13"/><line class="cls-2" x1="21.28" y1="33.66" x2="14.19" y2="40.74"/><line class="cls-2" x1="24.16" y1="33.66" x2="31.25" y2="40.74"/><line class="cls-2" x1="14.22" y1="40.74" x2="31.23" y2="40.74"/><line class="cls-2" x1="14.19" y1="40.74" x2="10.18" y2="44.76"/><line class="cls-2" x1="26.74" y1="40.74" x2="22.72" y2="44.76"/><line class="cls-2" x1="30.96" y1="40.74" x2="26.95" y2="44.76"/><line class="cls-2" x1="18.49" y1="40.74" x2="14.48" y2="44.76"/><line class="cls-2" x1="22.72" y1="40.74" x2="18.71" y2="44.76"/><circle class="cls-2" cx="192.41" cy="32.21" r="2.13"/><line class="cls-2" x1="190.96" y1="33.66" x2="183.88" y2="40.74"/><line class="cls-2" x1="193.85" y1="33.66" x2="200.93" y2="40.74"/><line class="cls-2" x1="182.75" y1="43.08" x2="201.17" y2="43.08"/><line class="cls-2" x1="183.88" y1="43.08" x2="179.86" y2="47.09"/><line class="cls-2" x1="196.42" y1="43.08" x2="192.41" y2="47.09"/><line class="cls-2" x1="200.65" y1="43.08" x2="196.63" y2="47.09"/><line class="cls-2" x1="188.18" y1="43.08" x2="184.16" y2="47.09"/><line class="cls-2" x1="192.41" y1="43.08" x2="188.39" y2="47.09"/><line class="cls-2" x1="183.9" y1="40.74" x2="200.91" y2="40.74"/><circle class="cls-1" cx="38.97" cy="30.09" r="1.42"/><circle class="cls-1" cx="56.37" cy="30.09" r="1.42"/><circle class="cls-3" cx="73.77" cy="30.09" r="4.25"/><circle class="cls-1" cx="91.16" cy="30.09" r="1.42"/><circle class="cls-1" cx="108.56" cy="30.09" r="1.42"/><circle class="cls-1" cx="125.96" cy="30.09" r="1.42"/><circle class="cls-3" cx="143.35" cy="30.09" r="2.83"/><circle class="cls-1" cx="160.75" cy="30.09" r="1.42"/><circle class="cls-1" cx="178.15" cy="30.09" r="1.42"/><line class="cls-4" x1="23.52" y1="58.67" x2="73.77" y2="58.67"/><line class="cls-4" x1="23.52" y1="55.28" x2="23.52" y2="62.37"/><line class="cls-4" x1="73.77" y1="55.13" x2="73.77" y2="62.21"/><line class="cls-5" x1="196.24" y1="30.09" x2="196.99" y2="30.09"/><line class="cls-6" x1="198.4" y1="30.09" x2="206.13" y2="30.09"/><line class="cls-5" x1="206.83" y1="30.09" x2="207.58" y2="30.09"/><rect class="cls-7" x="210.63" y="23" width="5.97" height="14.17"/><line class="cls-4" x1="73.77" y1="58.9" x2="141.71" y2="58.9"/><line class="cls-4" x1="141.71" y1="58.9" x2="191.96" y2="58.9"/><line class="cls-4" x1="192.41" y1="55.35" x2="192.41" y2="62.44"/><line class="cls-4" x1="143.35" y1="55.13" x2="143.35" y2="62.21"/></g><g id="Annotation"><path class="cls-7" d="M142.89,39.79l.49,4.26,3.07-4.26h1.29v.14a2.56,2.56,0,0,0-.49.06.5.5,0,0,0-.24.2,2.15,2.15,0,0,0-.23.59l-1,3.36a1.66,1.66,0,0,0-.09.46.27.27,0,0,0,.11.23.81.81,0,0,0,.47.11h.09l0,.15h-2.23l0-.15h.11a1,1,0,0,0,.45-.08.74.74,0,0,0,.22-.24,5.75,5.75,0,0,0,.27-.77l.87-3.07L143,45.09h-.15l-.5-4.31-1,3.27a2.58,2.58,0,0,0-.12.57.27.27,0,0,0,.11.22,1.24,1.24,0,0,0,.51.1l0,.15h-1.75l0-.15h.11a.72.72,0,0,0,.56-.19,1.92,1.92,0,0,0,.26-.61l1.15-4A.71.71,0,0,0,142,40a1.93,1.93,0,0,0-.44-.08l0-.14Z"/><path class="cls-7" d="M148.63,47.75h-1.54v-.09a8.91,8.91,0,0,0,1.55-1.61,1,1,0,0,0,.18-.57.5.5,0,0,0-.15-.38.49.49,0,0,0-.38-.15.6.6,0,0,0-.52.3l-.08,0a1,1,0,0,1,.34-.46.75.75,0,0,1,.48-.16.68.68,0,0,1,.69.69.94.94,0,0,1-.07.37,2.22,2.22,0,0,1-.4.6c-.3.33-.7.72-1.19,1.16h.77a.57.57,0,0,0,.31-.08.39.39,0,0,0,.17-.21h.09Z"/><path class="cls-7" d="M72.63,39.79l.49,4.26,3.08-4.26h1.29v.14A2.73,2.73,0,0,0,77,40a.53.53,0,0,0-.23.2,2.44,2.44,0,0,0-.24.59l-1,3.36a2,2,0,0,0-.08.46.26.26,0,0,0,.1.23.83.83,0,0,0,.47.11h.1l0,.15H73.86l0-.15H74a1.1,1.1,0,0,0,.45-.08.74.74,0,0,0,.22-.24,4.87,4.87,0,0,0,.26-.77l.88-3.07-3.09,4.31h-.16l-.49-4.31-1,3.27a2.58,2.58,0,0,0-.12.57.26.26,0,0,0,.1.22,1.35,1.35,0,0,0,.52.1l0,.15H69.84l0-.15H70a.69.69,0,0,0,.55-.19,1.88,1.88,0,0,0,.27-.61l1.15-4a.74.74,0,0,0-.25-.18,1.82,1.82,0,0,0-.43-.08l0-.14Z"/><path class="cls-7" d="M78.71,44.6,78,47.15a1.13,1.13,0,0,0-.07.33.16.16,0,0,0,.06.13.63.63,0,0,0,.27,0l0,.09H77.05l0-.09.25,0a.4.4,0,0,0,.14-.11,1.34,1.34,0,0,0,.15-.38l.53-1.83,0-.19a.28.28,0,0,0,0-.09.22.22,0,0,0,0-.13.16.16,0,0,0-.12,0l-.19,0,0-.08.77-.21Z"/><path class="cls-7" d="M42.07,53.65a4.11,4.11,0,0,1,.27-1.56,2.19,2.19,0,0,1,.73-1,1.23,1.23,0,0,1,.73-.26,1.39,1.39,0,0,1,1.09.62,3.33,3.33,0,0,1,.6,2.09,4.1,4.1,0,0,1-.26,1.57,2,2,0,0,1-.68.93,1.33,1.33,0,0,1-.79.29,1.48,1.48,0,0,1-1.27-.89A3.68,3.68,0,0,1,42.07,53.65Zm.76.1a5,5,0,0,0,.27,1.79c.15.38.37.58.67.58a.76.76,0,0,0,.44-.19,1.25,1.25,0,0,0,.34-.64,7.71,7.71,0,0,0,.18-1.89,5,5,0,0,0-.19-1.51,1.28,1.28,0,0,0-.36-.64.59.59,0,0,0-.39-.13.61.61,0,0,0-.47.24,1.9,1.9,0,0,0-.38,1A9.14,9.14,0,0,0,42.83,53.75Z"/><path class="cls-7" d="M46.78,55.51a.42.42,0,0,1,.31.13.43.43,0,0,1,.12.31.42.42,0,0,1-.12.3.43.43,0,0,1-.62,0,.42.42,0,0,1-.12-.3.43.43,0,0,1,.43-.44Z"/><path class="cls-7" d="M48.19,52a2.18,2.18,0,0,1,.57-.83,1.31,1.31,0,0,1,.86-.29,1.2,1.2,0,0,1,1,.42,1,1,0,0,1,.25.66,1.67,1.67,0,0,1-.72,1.19,1.62,1.62,0,0,1,.74.55,1.49,1.49,0,0,1,.25.84,1.79,1.79,0,0,1-.44,1.19,2.09,2.09,0,0,1-1.65.65,1.38,1.38,0,0,1-.73-.13c-.13-.09-.2-.18-.2-.28a.23.23,0,0,1,.1-.2.29.29,0,0,1,.22-.09l.2,0,.3.14a1.57,1.57,0,0,0,.32.15,1.06,1.06,0,0,0,.31,0,.91.91,0,0,0,.69-.31,1,1,0,0,0,.3-.73,1.46,1.46,0,0,0-.14-.6,1.26,1.26,0,0,0-.22-.33,1.65,1.65,0,0,0-.46-.28,1.44,1.44,0,0,0-.6-.13H49v-.12a1.5,1.5,0,0,0,.62-.22,1.12,1.12,0,0,0,.45-.44,1.1,1.1,0,0,0,.15-.57.87.87,0,0,0-.26-.65.85.85,0,0,0-.62-.25,1.2,1.2,0,0,0-1,.65Z"/><path class="cls-7" d="M56.37,54.8l.12,0L56,56.27h-4.1v-.15h.2a.55.55,0,0,0,.48-.21,1.38,1.38,0,0,0,.08-.58V51.91c0-.33,0-.54-.11-.62a.55.55,0,0,0-.45-.17h-.2V51h2.4v.15a1.25,1.25,0,0,0-.59.08.49.49,0,0,0-.24.2,1.8,1.8,0,0,0-.06.6v3.33a1.11,1.11,0,0,0,.06.44.26.26,0,0,0,.15.12,2.29,2.29,0,0,0,.61,0h.38a2.8,2.8,0,0,0,.86-.09,1.18,1.18,0,0,0,.45-.31A3.09,3.09,0,0,0,56.37,54.8Z"/><path class="cls-7" d="M42.12,9.79l-.61,2.09H42a1.4,1.4,0,0,0,.77-.16,1.39,1.39,0,0,0,.41-.6h.14L42.79,13h-.16a1.4,1.4,0,0,0,.07-.41.41.41,0,0,0-.07-.27.34.34,0,0,0-.18-.15,1.44,1.44,0,0,0-.51-.05h-.5l-.51,1.75a1.57,1.57,0,0,0-.08.39.24.24,0,0,0,.1.18.74.74,0,0,0,.33,0h.47A2.37,2.37,0,0,0,43,14.26a2.4,2.4,0,0,0,.83-.93h.14l-.5,1.47H39.35l0-.15a1.19,1.19,0,0,0,.41-.05.51.51,0,0,0,.22-.18,2.63,2.63,0,0,0,.25-.67l.93-3.2a2.07,2.07,0,0,0,.11-.59.28.28,0,0,0-.1-.23.66.66,0,0,0-.41-.08h-.08l.05-.15h3.8l-.32,1.28h-.15a1.89,1.89,0,0,0,0-.3.56.56,0,0,0-.1-.35.81.81,0,0,0-.39-.27,3,3,0,0,0-.86-.07Z"/><path class="cls-8" d="M30.79,30.09A13.43,13.43,0,0,1,37.94,12.5"/><path class="cls-7" d="M162.26,53.88a4,4,0,0,1,.28-1.56,2.21,2.21,0,0,1,.72-1,1.24,1.24,0,0,1,.73-.25,1.38,1.38,0,0,1,1.09.62,3.25,3.25,0,0,1,.61,2.09,4,4,0,0,1-.27,1.56,2.09,2.09,0,0,1-.67.94,1.43,1.43,0,0,1-.8.29,1.48,1.48,0,0,1-1.26-.89A3.71,3.71,0,0,1,162.26,53.88Zm.77.1a5,5,0,0,0,.27,1.78c.15.39.37.58.66.58a.68.68,0,0,0,.44-.19,1.17,1.17,0,0,0,.35-.63,8.37,8.37,0,0,0,.17-1.9,5.43,5.43,0,0,0-.18-1.51,1.33,1.33,0,0,0-.37-.63.55.55,0,0,0-.38-.13.63.63,0,0,0-.48.24,2,2,0,0,0-.38,1A9.12,9.12,0,0,0,163,54Z"/><path class="cls-7" d="M167,55.74a.44.44,0,0,1,.43.43.42.42,0,0,1-.13.31.43.43,0,0,1-.3.13.44.44,0,0,1-.31-.13.43.43,0,0,1,0-.62A.43.43,0,0,1,167,55.74Z"/><path class="cls-7" d="M168.38,52.21a2.1,2.1,0,0,1,.57-.83,1.32,1.32,0,0,1,.87-.29,1.19,1.19,0,0,1,1,.41,1,1,0,0,1,.26.66,1.66,1.66,0,0,1-.73,1.2,1.57,1.57,0,0,1,.74.55,1.36,1.36,0,0,1,.25.83,1.7,1.7,0,0,1-.44,1.19,2.06,2.06,0,0,1-1.65.66,1.49,1.49,0,0,1-.73-.13.37.37,0,0,1-.19-.29.28.28,0,0,1,.09-.2.3.3,0,0,1,.22-.08.69.69,0,0,1,.2,0,1.6,1.6,0,0,1,.3.14l.33.15a1,1,0,0,0,.31,0,.92.92,0,0,0,.69-.31,1,1,0,0,0,.29-.73,1.38,1.38,0,0,0-.13-.6,1,1,0,0,0-.23-.33,1.59,1.59,0,0,0-1.05-.41h-.13v-.12a1.71,1.71,0,0,0,.62-.22,1.19,1.19,0,0,0,.45-.44,1.26,1.26,0,0,0,.14-.57.86.86,0,0,0-.88-.9,1.19,1.19,0,0,0-1,.65Z"/><path class="cls-7" d="M176.56,55l.13,0-.45,1.44h-4.1v-.15h.19a.54.54,0,0,0,.49-.22,1.32,1.32,0,0,0,.08-.58V52.14a1.11,1.11,0,0,0-.11-.62.56.56,0,0,0-.46-.18h-.19V51.2h2.39v.14a1.62,1.62,0,0,0-.59.08.48.48,0,0,0-.23.21,1.75,1.75,0,0,0-.06.6v3.32a1.14,1.14,0,0,0,.06.45.33.33,0,0,0,.14.12,2.35,2.35,0,0,0,.61,0h.39a2.84,2.84,0,0,0,.86-.09,1.21,1.21,0,0,0,.45-.32A2.55,2.55,0,0,0,176.56,55Z"/><path class="cls-7" d="M101.39,53.88a4,4,0,0,1,.27-1.56,2.22,2.22,0,0,1,.73-1,1.19,1.19,0,0,1,.72-.25,1.39,1.39,0,0,1,1.1.62,3.31,3.31,0,0,1,.6,2.09,4,4,0,0,1-.26,1.56,2.11,2.11,0,0,1-.68.94,1.4,1.4,0,0,1-.79.29,1.47,1.47,0,0,1-1.27-.9A3.64,3.64,0,0,1,101.39,53.88Zm.76.1a5,5,0,0,0,.27,1.78c.15.39.37.58.67.58a.66.66,0,0,0,.43-.19,1.11,1.11,0,0,0,.35-.63,7.74,7.74,0,0,0,.18-1.9,5,5,0,0,0-.19-1.51,1.25,1.25,0,0,0-.36-.63.59.59,0,0,0-.39-.13.63.63,0,0,0-.47.23,1.93,1.93,0,0,0-.38,1A9.38,9.38,0,0,0,102.15,54Z"/><path class="cls-7" d="M106.1,55.74a.41.41,0,1,1-.31.12A.45.45,0,0,1,106.1,55.74Z"/><path class="cls-7" d="M110.82,54.54v.56h-.71v1.4h-.64V55.1h-2.25v-.5l2.46-3.51h.43v3.45Zm-1.35,0V51.91l-1.86,2.63Z"/><path class="cls-7" d="M115.68,55l.13,0-.45,1.44h-4.1v-.15h.2a.53.53,0,0,0,.48-.22,1.32,1.32,0,0,0,.08-.58V52.14a1.17,1.17,0,0,0-.11-.63.58.58,0,0,0-.45-.17h-.2V51.2h2.4v.14a1.58,1.58,0,0,0-.59.08.46.46,0,0,0-.24.21,1.75,1.75,0,0,0-.06.6v3.32a1.14,1.14,0,0,0,.06.45.31.31,0,0,0,.15.12,2.29,2.29,0,0,0,.61,0H114a2.8,2.8,0,0,0,.86-.09,1.21,1.21,0,0,0,.45-.32A2.55,2.55,0,0,0,115.68,55Z"/></g></svg>